0
SECTION
2
HEADER
9
$INSUNITS
70
4
9
$ACADVER
1
AC1014
9
$HANDSEED
5
FFFF
0
ENDSEC
0
SECTION
2
TABLES
0
TABLE
2
VPORT
5
8
100
AcDbSymbolTable
0
ENDTAB
0
TABLE
2
LTYPE
5
5
100
AcDbSymbolTable
0
LTYPE
5
14
100
AcDbSymbolTableRecord
100
AcDbLinetypeTableRecord
2
BYBLOCK
70
0
0
LTYPE
5
15
100
AcDbSymbolTableRecord
100
AcDbLinetypeTableRecord
2
BYLAYER
70
0
0
ENDTAB
0
TABLE
2
LAYER
5
2
100
AcDbSymbolTable
70
2
0
LAYER
5
50
100
AcDbSymbolTableRecord
100
AcDbLayerTableRecord
2
0
70
0
6
CONTINUOUS
0
ENDTAB
0
TABLE
2
STYLE
5
3
100
AcDbSymbolTable
70
1
0
STYLE
5
11
100
AcDbSymbolTableRecord
100
AcDbTextStyleTableRecord
2
STANDARD
70
0
0
ENDTAB
0
TABLE
2
VIEW
5
6
100
AcDbSymbolTable
70
0
0
ENDTAB
0
TABLE
2
UCS
5
7
100
AcDbSymbolTable
70
0
0
ENDTAB
0
TABLE
2
APPID
5
9
100
AcDbSymbolTable
70
2
0
APPID
5
12
100
AcDbSymbolTableRecord
100
AcDbRegAppTableRecord
2
ACAD
70
0
0
ENDTAB
0
TABLE
2
DIMSTYLE
5
A
100
AcDbSymbolTable
70
1
0
ENDTAB
0
TABLE
2
BLOCK_RECORD
5
1
100
AcDbSymbolTable
70
1
0
BLOCK_RECORD
5
1F
100
AcDbSymbolTableRecord
100
AcDbBlockTableRecord
2
*MODEL_SPACE
0
BLOCK_RECORD
5
1B
100
AcDbSymbolTableRecord
100
AcDbBlockTableRecord
2
*PAPER_SPACE
0
ENDTAB
0
ENDSEC
0
SECTION
2
BLOCKS
0
BLOCK
5
20
100
AcDbEntity
100
AcDbBlockBegin
2
*MODEL_SPACE
0
ENDBLK
5
21
100
AcDbEntity
100
AcDbBlockEnd
0
BLOCK
5
1C
100
AcDbEntity
100
AcDbBlockBegin
2
*PAPER_SPACE
0
ENDBLK
5
1D
100
AcDbEntity
100
AcDbBlockEnd
0
ENDSEC
0
SECTION
2
ENTITIES
0
CIRCLE
5
100
100
AcDbEntity
8
0
100
AcDbCircle
10
-119.70000000000029
20
-195.90000000000001
30
0
40
2.1000000000000001
210
0
220
-0
230
1
0
CIRCLE
5
101
100
AcDbEntity
8
0
100
AcDbCircle
10
119.70000000000002
20
-20.000000000000124
30
0
40
2.1000000000000001
210
0
220
-0
230
1
0
CIRCLE
5
102
100
AcDbEntity
8
0
100
AcDbCircle
10
-119.70000000000007
20
-19.999999999999954
30
0
40
2.1000000000000001
210
0
220
-0
230
1
0
CIRCLE
5
103
100
AcDbEntity
8
0
100
AcDbCircle
10
119.69999999999997
20
-195.90000000000001
30
0
40
2.1000000000000001
210
0
220
-0
230
1
0
SPLINE
5
104
100
AcDbEntity
8
0
100
AcDbSpline
70
0
71
2
72
6
73
3
74
0
42
0.000000001
43
0.0000000001
44
0.0000000001
40
0
40
0
40
0
40
1
40
1
40
1
10
-23.577448117732995
20
-168.21760578155511
30
0
10
-23.577448117732995
20
-165.55563373565667
30
0
10
-21.661974179744714
20
-164.11197109222405
30
0
0
SPLINE
5
105
100
AcDbEntity
8
0
100
AcDbSpline
70
0
71
2
72
6
73
3
74
0
42
0.000000001
43
0.0000000001
44
0.0000000001
40
0
40
0
40
0
40
1
40
1
40
1
10
-21.661974179744714
20
-164.11197109222405
30
0
10
-19.746462094783777
20
-162.66831083297723
30
0
10
-16.211258161067956
20
-162.66831083297723
30
0
0
SPLINE
5
106
100
AcDbEntity
8
0
100
AcDbSpline
70
0
71
2
72
6
73
3
74
0
42
0.000000001
43
0.0000000001
44
0.0000000001
40
0
40
0
40
0
40
1
40
1
40
1
10
-16.211258161067956
20
-162.66831083297723
30
0
10
-14.507032620906823
20
-162.66831083297723
30
0
10
-12.901397931575769
20
-162.95704288482659
30
0
0
SPLINE
5
107
100
AcDbEntity
8
0
100
AcDbSpline
70
0
71
2
72
6
73
3
74
0
42
0.000000001
43
0.0000000001
44
0.0000000001
40
0
40
0
40
0
40
1
40
1
40
1
10
-12.901397931575769
20
-162.95704288482659
30
0
10
-11.295763242244714
20
-163.24577493667596
30
0
10
-10.028158414363855
20
-163.76690073013299
30
0
0
LINE
5
108
100
AcDbEntity
8
0
100
AcDbLine
10
-10.028158414363856
20
-163.76690073013299
30
0
11
-10.535198438167566
21
-167.56971759796136
31
0
0
SPLINE
5
109
100
AcDbEntity
8
0
100
AcDbSpline
70
0
71
2
72
6
73
3
74
0
42
0.000000001
43
0.0000000001
44
0.0000000001
40
0
40
0
40
0
40
1
40
1
40
1
10
-10.535198438167566
20
-167.56971759796136
30
0
10
-12.084499585628503
20
-166.9218317985534
30
0
10
-13.612667310237878
20
-166.56971855163567
30
0
0
SPLINE
5
110
100
AcDbEntity
8
0
100
AcDbSpline
70
0
71
2
72
6
73
3
74
0
42
0.000000001
43
0.0000000001
44
0.0000000001
40
0
40
0
40
0
40
1
40
1
40
1
10
-13.612667310237878
20
-166.56971855163567
30
0
10
-15.140835034847253
20
-166.21760530471795
30
0
10
-16.436611402034753
20
-166.21760530471795
30
0
0
SPLINE
5
111
100
AcDbEntity
8
0
100
AcDbSpline
70
0
71
2
72
6
73
3
74
0
42
0.000000001
43
0.0000000001
44
0.0000000001
40
0
40
0
40
0
40
1
40
1
40
1
10
-16.436611402034753
20
-166.21760530471795
30
0
10
-17.94365524053573
20
-166.21760530471795
30
0
10
-18.746467816829675
20
-166.7528168678283
30
0
0
SPLINE
5
112
100
AcDbEntity
8
0
100
AcDbSpline
70
0
71
2
72
6
73
3
74
0
42
0.000000001
43
0.0000000001
44
0.0000000001
40
0
40
0
40
0
40
1
40
1
40
1
10
-18.746467816829675
20
-166.7528168678283
30
0
10
-19.54928039312362
20
-167.28802843093865
30
0
10
-19.54928039312362
20
-168.28802747726434
30
0
0
SPLINE
5
113
100
AcDbEntity
8
0
100
AcDbSpline
70
0
71
2
72
6
73
3
74
0
42
0.000000001
43
0.0000000001
44
0.0000000001
40
0
40
0
40
0
40
1
40
1
40
1
10
-19.54928039312362
20
-168.28802747726434
30
0
10
-19.54928039312362
20
-169.59788722991937
30
0
10
-17.901397931575769
20
-170.37253541946404
30
0
0
LINE
5
114
100
AcDbEntity
8
0
100
AcDbLine
10
-17.901397931575769
20
-170.37253541946404
30
0
11
-15.028158414363855
21
-171.76690263748162
31
0
0
SPLINE
5
115
100
AcDbEntity
8
0
100
AcDbSpline
70
0
71
2
72
6
73
3
74
0
42
0.000000001
43
0.0000000001
44
0.0000000001
40
0
40
0
40
0
40
1
40
1
40
1
10
-15.028158414363855
20
-171.76690263748162
30
0
10
-12.901397931575769
20
-172.80915422439568
30
0
10
-11.732383954524988
20
-174.34436602592461
30
0
0
SPLINE
5
116
100
AcDbEntity
8
0
100
AcDbSpline
70
0
71
2
72
6
73
3
74
0
42
0.000000001
43
0.0000000001
44
0.0000000001
40
0
40
0
40
0
40
1
40
1
40
1
10
-11.732383954524988
20
-174.34436602592461
30
0
10
-10.563369977474206
20
-175.87957782745355
30
0
10
-10.563369977474206
20
-177.73873252868646
30
0
0
SPLINE
5
117
100
AcDbEntity
8
0
100
AcDbSpline
70
0
71
2
72
6
73
3
74
0
42
0.000000001
43
0.0000000001
44
0.0000000001
40
0
40
0
40
0
40
1
40
1
40
1
10
-10.563369977474206
20
-177.73873252868646
30
0
10
-10.563369977474206
20
-180.35845084190362
30
0
10
-12.29576705694198
20
-181.79507060050958
30
0
0
SPLINE
5
118
100
AcDbEntity
8
0
100
AcDbSpline
70
0
71
2
72
6
73
3
74
0
42
0.000000001
43
0.0000000001
44
0.0000000001
40
0
40
0
40
0
40
1
40
1
40
1
10
-12.29576705694198
20
-181.79507060050958
30
0
10
-14.028154599666589
20
-183.23169155120843
30
0
10
-17.197176206111902
20
-183.23169155120843
30
0
0
SPLINE
5
119
100
AcDbEntity
8
0
100
AcDbSpline
70
0
71
2
72
6
73
3
74
0
42
0.000000001
43
0.0000000001
44
0.0000000001
40
0
40
0
40
0
40
1
40
1
40
1
10
-17.197176206111902
20
-183.23169155120843
30
0
10
-19.042240369319909
20
-183.23169155120843
30
0
10
-20.697160947322839
20
-182.58380336761468
30
0
0
SPLINE
5
120
100
AcDbEntity
8
0
100
AcDbSpline
70
0
71
2
72
6
73
3
74
0
42
0.000000001
43
0.0000000001
44
0.0000000001
40
0
40
0
40
0
40
1
40
1
40
1
10
-20.697160947322839
20
-182.58380336761468
30
0
10
-22.352091062068933
20
-181.93591637611382
30
0
10
-23.633791196346277
20
-180.71056408882134
30
0
0
LINE
5
121
100
AcDbEntity
8
0
100
AcDbLine
10
-23.633791196346277
20
-180.71056408882134
30
0
11
-21.070410001277917
21
-177.7669016838073
31
0
0
SPLINE
5
122
100
AcDbEntity
8
0
100
AcDbSpline
70
0
71
2
72
6
73
3
74
0
42
0.000000001
43
0.0000000001
44
0.0000000001
40
0
40
0
40
0
40
1
40
1
40
1
10
-21.070410001277917
20
-177.7669016838073
30
0
10
-20.098577725887292
20
-178.69647903442376
30
0
10
-19.112669217586511
20
-179.1964797496795
30
0
0
SPLINE
5
123
100
AcDbEntity
8
0
100
AcDbSpline
70
0
71
2
72
6
73
3
74
0
42
0.000000001
43
0.0000000001
44
0.0000000001
40
0
40
0
40
0
40
1
40
1
40
1
10
-19.112669217586511
20
-179.1964797496795
30
0
10
-18.126751172542566
20
-179.69647927284234
30
0
10
-17.211252439022058
20
-179.69647927284234
30
0
0
SPLINE
5
124
100
AcDbEntity
8
0
100
AcDbSpline
70
0
71
2
72
6
73
3
74
0
42
0.000000001
43
0.0000000001
44
0.0000000001
40
0
40
0
40
0
40
1
40
1
40
1
10
-17.211252439022058
20
-179.69647927284234
30
0
10
-15.971819150447839
20
-179.69647927284234
30
0
10
-15.281683194637292
20
-179.16831059455865
30
0
0
SPLINE
5
125
100
AcDbEntity
8
0
100
AcDbSpline
70
0
71
2
72
6
73
3
74
0
42
0.000000001
43
0.0000000001
44
0.0000000001
40
0
40
0
40
0
40
1
40
1
40
1
10
-15.281683194637292
20
-179.16831059455865
30
0
10
-14.591537702083581
20
-178.64014191627496
30
0
10
-14.591537702083581
20
-177.64014167785638
30
0
0
SPLINE
5
126
100
AcDbEntity
8
0
100
AcDbSpline
70
0
71
2
72
6
73
3
74
0
42
0.000000001
43
0.0000000001
44
0.0000000001
40
0
40
0
40
0
40
1
40
1
40
1
10
-14.591537702083581
20
-177.64014167785638
30
0
10
-14.591537702083581
20
-176.9781689167022
30
0
10
-15.077453839778894
20
-176.38662023544305
30
0
0
SPLINE
5
127
100
AcDbEntity
8
0
100
AcDbSpline
70
0
71
2
72
6
73
3
74
0
42
0.000000001
43
0.0000000001
44
0.0000000001
40
0
40
0
40
0
40
1
40
1
40
1
10
-15.077453839778894
20
-176.38662023544305
30
0
10
-15.563369977474206
20
-175.795070362091
30
0
10
-16.464782941341394
20
-175.31619710922234
30
0
0
LINE
5
128
100
AcDbEntity
8
0
100
AcDbLine
10
-16.464782941341394
20
-175.31619710922232
30
0
11
-19.169002759456628
21
-173.92182989120477
31
0
0
SPLINE
5
129
100
AcDbEntity
8
0
100
AcDbSpline
70
0
71
2
72
6
73
3
74
0
42
0.000000001
43
0.0000000001
44
0.0000000001
40
0
40
0
40
0
40
1
40
1
40
1
10
-19.169002759456628
20
-173.92182989120477
30
0
10
-21.281687009334558
20
-172.823239994049
30
0
10
-22.429567563533777
20
-171.3584510803222
30
0
0
SPLINE
5
130
100
AcDbEntity
8
0
100
AcDbSpline
70
0
71
2
72
6
73
3
74
0
42
0.000000001
43
0.0000000001
44
0.0000000001
40
0
40
0
40
0
40
1
40
1
40
1
10
-22.429567563533777
20
-171.3584510803222
30
0
10
-23.577448117732995
20
-169.89366216659539
30
0
10
-23.577448117732995
20
-168.21760578155511
30
0
0
LINE
5
131
100
AcDbEntity
8
0
100
AcDbLine
10
-37.144609008159136
20
-172.58943628726797
30
0
11
-41.957727658748624
21
-162.94999999999993
31
0
0
LINE
5
132
100
AcDbEntity
8
0
100
AcDbLine
10
-41.957727658748624
20
-162.94999999999993
30
0
11
-37.366186368465421
21
-162.94999999999993
31
0
0
LINE
5
133
100
AcDbEntity
8
0
100
AcDbLine
10
-37.366186368465421
20
-162.94999999999993
30
0
11
-34.020368665791288
21
-170.33426572658323
31
0
0
SPLINE
5
134
100
AcDbEntity
8
0
100
AcDbSpline
70
0
71
2
72
6
73
3
74
0
42
0.000000001
43
0.0000000001
44
0.0000000001
40
0.043458038354288561
40
0.043458038354288561
40
0.043458038354288561
40
0.68357072741469149
40
0.68357072741469149
40
0.68357072741469149
10
-34.020368665791288
20
-170.33426572658323
30
0
10
-32.606083070327287
20
-169.65298037165047
30
0
10
-30.943647611141198
20
-169.42760747853299
30
0
0
LINE
5
135
100
AcDbEntity
8
0
100
AcDbLine
10
-30.943647611141198
20
-169.42760747853299
30
0
11
-30.943647611141198
21
-162.94999999999993
31
0
0
LINE
5
136
100
AcDbEntity
8
0
100
AcDbLine
10
-30.943647611141198
20
-162.94999999999993
30
0
11
-27.225328671932214
21
-162.94999999999993
31
0
0
LINE
5
137
100
AcDbEntity
8
0
100
AcDbLine
10
-27.225328671932214
20
-162.94999999999993
30
0
11
-27.225328671932214
21
-182.94999880790704
31
0
0
LINE
5
138
100
AcDbEntity
8
0
100
AcDbLine
10
-27.225328671932214
20
-182.94999880790704
30
0
11
-30.943647611141198
21
-182.94999880790704
31
0
0
LINE
5
139
100
AcDbEntity
8
0
100
AcDbLine
10
-30.943647611141198
20
-182.94999880790704
30
0
11
-30.943647611141198
21
-173.17017652817032
31
0
0
SPLINE
5
140
100
AcDbEntity
8
0
100
AcDbSpline
70
0
71
2
72
6
73
3
74
0
42
0.000000001
43
0.0000000001
44
0.0000000001
40
0.38251126096920468
40
0.38251126096920468
40
0.38251126096920468
40
1
40
1
40
1
10
-30.943647611142275
20
-173.17017652817049
30
0
10
-32.050550127570226
20
-173.36645254471168
30
0
10
-32.950693356990811
20
-173.87957735061639
30
0
0
SPLINE
5
141
100
AcDbEntity
8
0
100
AcDbSpline
70
0
71
2
72
6
73
3
74
0
42
0.000000001
43
0.0000000001
44
0.0000000001
40
0
40
0
40
0
40
1
40
1
40
1
10
-32.950693356990811
20
-173.87957735061639
30
0
10
-34.408441770076749
20
-174.71056265830987
30
0
10
-35.359140622615811
20
-176.11901326179498
30
0
0
SPLINE
5
142
100
AcDbEntity
8
0
100
AcDbSpline
70
0
71
2
72
6
73
3
74
0
42
0.000000001
43
0.0000000001
44
0.0000000001
40
0
40
0
40
0
40
1
40
1
40
1
10
-35.359140622615811
20
-176.11901326179498
30
0
10
-36.309839475154874
20
-177.52746386528008
30
0
10
-36.767603147029874
20
-179.29506940841668
30
0
0
SPLINE
5
143
100
AcDbEntity
8
0
100
AcDbSpline
70
0
71
2
72
6
73
3
74
0
42
0.000000001
43
0.0000000001
44
0.0000000001
40
0
40
0
40
0
40
1
40
1
40
1
10
-36.767603147029874
20
-179.29506940841668
30
0
10
-37.225328671932218
20
-181.06267495155328
30
0
10
-37.225328671932218
20
-182.94999880790704
30
0
0
LINE
5
144
100
AcDbEntity
8
0
100
AcDbLine
10
-37.225328671932218
20
-182.94999880790704
30
0
11
-40.999971616268155
21
-182.94999880790704
31
0
0
SPLINE
5
145
100
AcDbEntity
8
0
100
AcDbSpline
70
0
71
2
72
6
73
3
74
0
42
0.000000001
43
0.0000000001
44
0.0000000001
40
0
40
0
40
0
40
1
40
1
40
1
10
-40.999971616268155
20
-182.94999880790704
30
0
10
-40.999971616268155
20
-180.28802795410149
30
0
10
-40.21124480962753
20
-177.83732337951653
30
0
0
SPLINE
5
146
100
AcDbEntity
8
0
100
AcDbSpline
70
0
71
2
72
6
73
3
74
0
42
0.000000001
43
0.0000000001
44
0.0000000001
40
0
40
0
40
0
40
1
40
1
40
1
10
-40.21124480962753
20
-177.83732337951653
30
0
10
-39.422518002986905
20
-175.38661880493157
30
0
10
-37.908426511287686
20
-173.46408529281609
30
0
0
SPLINE
5
147
100
AcDbEntity
8
0
100
AcDbSpline
70
0
71
2
72
6
73
3
74
0
42
0.000000001
43
0.0000000001
44
0.0000000001
40
0
40
0
40
0
40
0.23956019393390271
40
0.23956019393390271
40
0.23956019393390271
10
-37.908426511287686
20
-173.46408529281609
30
0
10
-37.545715029150635
20
-173.00352222065328
30
0
10
-37.144609008159108
20
-172.58943628726797
30
0
0
SPLINE
5
148
100
AcDbEntity
8
0
100
AcDbSpline
70
0
71
2
72
6
73
3
74
0
42
0.000000001
43
0.0000000001
44
0.0000000001
40
0
40
0
40
0
40
1
40
1
40
1
10
21.802814912796027
20
-45.795067977905404
30
0
10
21.802814912796027
20
-39.090847206115853
30
0
10
25.253513765335089
20
-35.738729667663705
30
0
0
SPLINE
5
149
100
AcDbEntity
8
0
100
AcDbSpline
70
0
71
2
72
6
73
3
74
0
42
0.000000001
43
0.0000000001
44
0.0000000001
40
0
40
0
40
0
40
1
40
1
40
1
10
25.253513765335089
20
-35.738729667663705
30
0
10
28.704222154617334
20
-32.386621665954721
30
0
10
35.352104616165185
20
-32.386621665954721
30
0
0
SPLINE
5
150
100
AcDbEntity
8
0
100
AcDbSpline
70
0
71
2
72
6
73
3
74
0
42
0.000000001
43
0.0000000001
44
0.0000000001
40
0
40
0
40
0
40
1
40
1
40
1
10
35.352104616165185
20
-32.386621665954721
30
0
10
48.676050615310693
20
-32.386621665954735
30
0
10
48.676050615310672
20
-45.795067977905418
30
0
0
LINE
5
151
100
AcDbEntity
8
0
100
AcDbLine
10
48.676050615310672
20
-45.795067977905418
30
0
11
48.676050615310665
21
-72.949997615814354
31
0
0
LINE
5
152
100
AcDbEntity
8
0
100
AcDbLine
10
48.676050615310665
20
-72.949997615814354
30
0
11
41.239431810379031
21
-72.949997615814354
31
0
0
LINE
5
153
100
AcDbEntity
8
0
100
AcDbLine
10
41.239431810379031
20
-72.949997615814354
30
0
11
41.239431810379031
21
-45.795067977905418
31
0
0
SPLINE
5
154
100
AcDbEntity
8
0
100
AcDbSpline
70
0
71
2
72
6
73
3
74
0
42
0.000000001
43
0.0000000001
44
0.0000000001
40
0
40
0
40
0
40
1
40
1
40
1
10
41.239431810379031
20
-45.795067977905418
30
0
10
41.239431810379031
20
-42.668308448791649
30
0
10
39.788731050491336
20
-41.090845298767235
30
0
0
SPLINE
5
155
100
AcDbEntity
8
0
100
AcDbSpline
70
0
71
2
72
6
73
3
74
0
42
0.000000001
43
0.0000000001
44
0.0000000001
40
0
40
0
40
0
40
1
40
1
40
1
10
39.788731050491336
20
-41.090845298767235
30
0
10
38.338020753860476
20
-39.513382148742821
30
0
10
35.239427995681766
20
-39.513382148742807
30
0
0
SPLINE
5
156
100
AcDbEntity
8
0
100
AcDbSpline
70
0
71
2
72
6
73
3
74
0
42
0.000000001
43
0.0000000001
44
0.0000000001
40
0
40
0
40
0
40
1
40
1
40
1
10
35.239427995681766
20
-39.513382148742807
30
0
10
29.239433717727668
20
-39.513382148742807
30
0
10
29.239433717727668
20
-45.795067977905404
30
0
0
LINE
5
157
100
AcDbEntity
8
0
100
AcDbLine
10
29.239433717727668
20
-45.795067977905404
30
0
11
29.23943371772765
21
-72.94999761581434
31
0
0
LINE
5
158
100
AcDbEntity
8
0
100
AcDbLine
10
29.23943371772765
20
-72.94999761581434
30
0
11
21.802814912796027
21
-72.949997615814354
31
0
0
LINE
5
159
100
AcDbEntity
8
0
100
AcDbLine
10
21.802814912796027
20
-72.949997615814354
30
0
11
21.802814912796027
21
-45.795067977905404
31
0
0
LWPOLYLINE
5
160
100
AcDbEntity
8
0
100
AcDbPolyline
90
10
70
1
43
0.0
10
-92.070413815975186
20
-179.52746434211721
10
-92.070413815975186
20
-182.94999880790701
10
-78.35211395025253
20
-182.94999880790701
10
-78.35211395025253
20
-162.9499999999999
10
-82.070413815975186
20
-162.9499999999999
10
-82.070413815975186
20
-170.40070457458486
10
-89.295755612850186
20
-170.40070457458486
10
-89.295755612850186
20
-173.85140819549551
10
-82.070413815975186
20
-173.85140819549551
10
-82.070413815975186
20
-179.52746434211721
0
LWPOLYLINE
5
161
100
AcDbEntity
8
0
100
AcDbPolyline
90
12
70
1
43
0.0
10
-38.366195249557471
20
-32.950000000000124
10
-45.802814054489133
20
-32.950000000000124
10
-45.802814054489147
20
-72.94999761581434
10
-38.366195249557492
20
-72.94999761581434
10
-38.366195249557478
20
-56.30211277008069
10
-26.366206693649296
20
-56.30211277008069
10
-26.366206693649303
20
-72.94999761581434
10
-18.929568815231317
20
-72.94999761581434
10
-18.929568815231299
20
-32.950000000000124
10
-26.366206693649286
20
-32.950000000000124
10
-26.366206693649296
20
-49.42887229919446
10
-38.366195249557478
20
-49.42887229919446
0
LWPOLYLINE
5
162
100
AcDbEntity
8
0
100
AcDbPolyline
90
12
70
1
43
0.0
10
-80.73239474296571
20
-66.10492868423475
10
-80.73239474296571
20
-72.94999761581434
10
-53.295756864547727
20
-72.94999761581434
10
-53.295756864547705
20
-32.950000000000124
10
-80.732394742965681
20
-32.950000000000124
10
-80.732394742965681
20
-39.795068931579692
10
-60.732394742965695
20
-39.795068931579713
10
-60.732394742965703
20
-49.541548919677858
10
-75.661975431442272
20
-49.541548919677858
10
-75.661975431442272
20
-56.414787006378297
10
-60.732394742965703
20
-56.414787006378297
10
-60.73239474296571
20
-66.10492868423475
0
LWPOLYLINE
5
163
100
AcDbEntity
8
0
100
AcDbPolyline
90
12
70
1
43
0.0
10
-100.80983250141144
20
-92.949999999999989
10
-100.80983250141144
20
-142.94999999999999
10
-91.86619846820831
20
-142.94999999999999
10
-91.86619846820831
20
-103.86549396514891
10
-90.563364911079404
20
-103.86549396514891
10
-81.760569500923154
20
-142.94999999999999
10
-67.781687664985654
20
-142.94999999999999
10
-67.781687664985654
20
-92.949999999999989
10
-76.725321698188779
20
-92.949999999999989
10
-76.725321698188779
20
-132.03450603485106
10
-78.028155255317685
20
-132.03450603485106
10
-86.830988812446591
20
-92.949999999999989
0
LWPOLYLINE
5
164
100
AcDbEntity
8
0
100
AcDbPolyline
90
8
70
1
43
0.0
10
76.943663370609286
20
-179.5274643421173
10
76.943663370609286
20
-182.94999880790709
10
92.070425760746005
20
-182.94999880790709
10
92.070425760746005
20
-179.5274643421173
10
86.366199266910556
20
-179.5274643421173
10
86.366199266910556
20
-162.94999999999999
10
82.647889864444736
20
-162.94999999999999
10
82.647889864444736
20
-179.5274643421173
0
LWPOLYLINE
5
165
100
AcDbEntity
8
0
100
AcDbPolyline
90
8
70
1
43
0.0
10
-27.116886136348313
20
-111.01337833404541
10
-21.901408123970025
20
-92.950000000000017
10
-31.936617779731744
20
-92.950000000000017
10
-34.390645685591615
20
-102.42183132171633
10
-49.69385259014625
20
-102.42183132171631
10
-52.14787571430206
20
-92.950000000000003
10
-62.183085370063779
20
-92.949999999999989
10
-56.967607357685459
20
-111.01337833404541
0
LWPOLYLINE
5
166
100
AcDbEntity
8
0
100
AcDbPolyline
90
8
70
1
43
0.0
10
-47.746478009223935
20
-142.95000000000002
10
-36.338015484809873
20
-142.95000000000002
10
-27.549984357173514
20
-112.51337833404541
10
-37.005233840764227
20
-112.51337833404541
10
-41.725359845161435
20
-130.73168678283693
10
-42.359152722358701
20
-130.7316867828369
10
-47.079269529531345
20
-112.51337833404541
10
-56.534509136860279
20
-112.51337833404541
0
LWPOLYLINE
5
167
100
AcDbEntity
8
0
100
AcDbPolyline
90
12
70
1
43
0.0
10
64.605635416507724
20
-162.94999999999993
10
60.887326014041903
20
-162.94999999999993
10
60.887326014041903
20
-182.94999880790704
10
64.605635416507724
20
-182.94999880790704
10
64.605635416507724
20
-174.62605638504021
10
70.605634462833407
20
-174.62605638504021
10
70.605634462833407
20
-182.94999880790704
10
74.323943865299228
20
-182.94999880790704
10
74.323943865299228
20
-162.94999999999993
10
70.605634462833407
20
-162.94999999999993
10
70.605634462833407
20
-171.1894361495971
10
64.605635416507724
20
-171.1894361495971
0
LWPOLYLINE
5
168
100
AcDbEntity
8
0
100
AcDbPolyline
90
12
70
1
43
0.0
10
43.422540438175204
20
-179.52746434211724
10
43.422540438175204
20
-182.94999880790704
10
57.140849840641025
20
-182.94999880790704
10
57.140849840641025
20
-162.94999999999993
10
43.422540438175204
20
-162.94999999999993
10
43.422540438175204
20
-166.37253446578973
10
53.422540438175204
20
-166.37253446578973
10
53.422540438175204
20
-171.2457744598388
10
45.957750093936923
20
-171.2457744598388
10
45.957750093936923
20
-174.68239350318902
10
53.422540438175204
20
-174.68239350318902
10
53.422540438175204
20
-179.52746434211724
0
LWPOLYLINE
5
169
100
AcDbEntity
8
0
100
AcDbPolyline
90
4
70
1
43
0.0
10
115.71830601692201
20
-32.950000000000159
10
108.28168482780455
20
-32.950000000000159
10
108.28168482780455
20
-72.949997615814368
10
115.718306016922
20
-72.949997615814368
0
LINE
5
170
100
AcDbEntity
8
0
100
AcDbLine
10
106.78168482780455
20
-72.949997615814368
30
0
11
103.35210652351378
21
-72.949997615814368
31
0
0
SPLINE
5
171
100
AcDbEntity
8
0
100
AcDbSpline
70
0
71
2
72
6
73
3
74
0
42
0.000000001
43
0.0000000001
44
0.0000000001
40
0
40
0
40
0
40
1
40
1
40
1
10
103.35210652351378
20
-72.949997615814354
30
0
10
97.042249155044544
20
-72.949997615814354
30
0
10
93.5915455341339
20
-70.372533035278465
30
0
0
SPLINE
5
172
100
AcDbEntity
8
0
100
AcDbSpline
70
0
71
2
72
6
73
3
74
0
42
0.000000001
43
0.0000000001
44
0.0000000001
40
0
40
0
40
0
40
1
40
1
40
1
10
93.5915455341339
20
-70.372533035278465
30
0
10
90.140841913223255
20
-67.795068454742577
30
0
10
90.140841913223269
20
-63.03450508117691
30
0
0
SPLINE
5
173
100
AcDbEntity
8
0
100
AcDbSpline
70
0
71
2
72
6
73
3
74
0
42
0.000000001
43
0.0000000001
44
0.0000000001
40
0
40
0
40
0
40
1
40
1
40
1
10
90.140841913223269
20
-63.03450508117691
30
0
10
90.140841913223269
20
-58.921829891204986
30
0
10
92.816894960403445
20
-56.724647712707672
30
0
0
SPLINE
5
174
100
AcDbEntity
8
0
100
AcDbSpline
70
0
71
2
72
6
73
3
74
0
42
0.000000001
43
0.0000000001
44
0.0000000001
40
0
40
0
40
0
40
0.90604193278773604
40
0.90604193278773604
40
0.90604193278773604
10
92.816894960403445
20
-56.724647712707672
30
0
10
95.241515555857688
20
-54.733906364842895
30
0
10
99.492953729622116
20
-54.546860155477987
30
0
0
LINE
5
175
100
AcDbEntity
8
0
100
AcDbLine
10
99.492953729622116
20
-54.546860155477987
30
0
11
99.492953729629519
21
-53.626054954528968
31
0
0
LINE
5
176
100
AcDbEntity
8
0
100
AcDbLine
10
99.492953729629519
20
-53.626054954528968
30
0
11
98.197177362442019
21
-53.626054954528968
31
0
0
SPLINE
5
177
100
AcDbEntity
8
0
100
AcDbSpline
70
0
71
2
72
6
73
3
74
0
42
0.000000001
43
0.0000000001
44
0.0000000001
40
0
40
0
40
0
40
1
40
1
40
1
10
98.197177362442019
20
-53.626054954528961
30
0
10
92.985909891128543
20
-53.626054954528961
30
0
10
90.15492768287659
20
-51.104931068420562
30
0
0
SPLINE
5
178
100
AcDbEntity
8
0
100
AcDbSpline
70
0
71
2
72
6
73
3
74
0
42
0.000000001
43
0.0000000001
44
0.0000000001
40
0
40
0
40
0
40
1
40
1
40
1
10
90.15492768287659
20
-51.104931068420562
30
0
10
87.323940706253055
20
-48.583802413940582
30
0
10
87.323940706253069
20
-43.935913276672515
30
0
0
SPLINE
5
179
100
AcDbEntity
8
0
100
AcDbSpline
70
0
71
2
72
6
73
3
74
0
42
0.000000001
43
0.0000000001
44
0.0000000001
40
0
40
0
40
0
40
1
40
1
40
1
10
87.323940706253069
20
-43.935913276672515
30
0
10
87.323940706253069
20
-38.69647903442398
30
0
10
90.605629396438616
20
-35.823239517212066
30
0
0
SPLINE
5
180
100
AcDbEntity
8
0
100
AcDbSpline
70
0
71
2
72
6
73
3
74
0
42
0.000000001
43
0.0000000001
44
0.0000000001
40
0
40
0
40
0
40
1
40
1
40
1
10
90.605629396438616
20
-35.823239517212066
30
0
10
93.887318086624163
20
-32.950000000000152
30
0
10
99.915488672256487
20
-32.950000000000152
30
0
0
LINE
5
181
100
AcDbEntity
8
0
100
AcDbLine
10
99.915488672256515
20
-32.950000000000152
30
0
11
106.78168482780455
21
-32.950000000000159
31
0
0
LINE
5
182
100
AcDbEntity
8
0
100
AcDbLine
10
106.78168482780455
20
-32.950000000000159
30
0
11
106.78168482780455
21
-39.795068931579749
31
0
0
LINE
5
183
100
AcDbEntity
8
0
100
AcDbLine
10
106.78168482780455
20
-39.795068931579749
30
0
11
101.5492901325226
21
-39.795068931579749
31
0
0
SPLINE
5
184
100
AcDbEntity
8
0
100
AcDbSpline
70
0
71
2
72
6
73
3
74
0
42
0.000000001
43
0.0000000001
44
0.0000000001
40
0
40
0
40
0
40
1
40
1
40
1
10
101.5492901325226
20
-39.795068931579742
30
0
10
98.47886891365053
20
-39.795068931579742
30
0
10
96.802814912796038
20
-41.231688690185699
30
0
0
SPLINE
5
185
100
AcDbEntity
8
0
100
AcDbSpline
70
0
71
2
72
6
73
3
74
0
42
0.000000001
43
0.0000000001
44
0.0000000001
40
0
40
0
40
0
40
1
40
1
40
1
10
96.802814912796038
20
-41.231688690185699
30
0
10
95.126756143569963
20
-42.668308448791656
30
0
10
95.126756143569963
20
-45.259861183166656
30
0
0
SPLINE
5
186
100
AcDbEntity
8
0
100
AcDbSpline
70
0
71
2
72
6
73
3
74
0
42
0.000000001
43
0.0000000001
44
0.0000000001
40
0
40
0
40
0
40
1
40
1
40
1
10
95.126756143569963
20
-45.259861183166656
30
0
10
95.126756143569949
20
-47.851409149170074
30
0
10
96.887319993972781
20
-49.24577159881607
30
0
0
SPLINE
5
187
100
AcDbEntity
8
0
100
AcDbSpline
70
0
71
2
72
6
73
3
74
0
42
0.000000001
43
0.0000000001
44
0.0000000001
40
0
40
0
40
0
40
1
40
1
40
1
10
96.887319993972781
20
-49.24577159881607
30
0
10
98.647883844375613
20
-50.640138816833648
30
0
10
101.94365830421448
20
-50.640138816833648
30
0
0
LINE
5
188
100
AcDbEntity
8
0
100
AcDbLine
10
101.94365830421448
20
-50.640138816833648
30
0
11
106.78168482780455
21
-50.640138816833655
31
0
0
LINE
5
189
100
AcDbEntity
8
0
100
AcDbLine
10
106.78168482780455
20
-50.640138816833655
30
0
11
106.78168482780455
21
-57.513379287719886
31
0
0
LINE
5
190
100
AcDbEntity
8
0
100
AcDbLine
10
106.78168482780455
20
-57.513379287719886
30
0
11
103.2394299030304
21
-57.513379287719886
31
0
0
SPLINE
5
191
100
AcDbEntity
8
0
100
AcDbSpline
70
0
71
2
72
6
73
3
74
0
42
0.000000001
43
0.0000000001
44
0.0000000001
40
0
40
0
40
0
40
1
40
1
40
1
10
103.2394299030304
20
-57.513379287719879
30
0
10
100.61971516609192
20
-57.513379287719879
30
0
10
99.281686258316043
20
-58.65422410964981
30
0
0
SPLINE
5
192
100
AcDbEntity
8
0
100
AcDbSpline
70
0
71
2
72
6
73
3
74
0
42
0.000000001
43
0.0000000001
44
0.0000000001
40
0
40
0
40
0
40
1
40
1
40
1
10
99.281686258316043
20
-58.65422410964981
30
0
10
97.943657350540164
20
-59.795068931579742
30
0
10
97.943657350540164
20
-62.020422649383697
30
0
0
SPLINE
5
193
100
AcDbEntity
8
0
100
AcDbSpline
70
0
71
2
72
6
73
3
74
0
42
0.000000001
43
0.0000000001
44
0.0000000001
40
0
40
0
40
0
40
1
40
1
40
1
10
97.943657350540164
20
-62.020422649383697
30
0
10
97.943657350540164
20
-64.048589897155907
30
0
10
99.366191339492801
20
-65.076760482788231
30
0
0
SPLINE
5
194
100
AcDbEntity
8
0
100
AcDbSpline
70
0
71
2
72
6
73
3
74
0
42
0.000000001
43
0.0000000001
44
0.0000000001
40
0
40
0
40
0
40
1
40
1
40
1
10
99.366191339492801
20
-65.076760482788231
30
0
10
100.78872532844542
20
-66.104928684234764
30
0
10
103.63379807472228
20
-66.104928684234764
30
0
0
LINE
5
195
100
AcDbEntity
8
0
100
AcDbLine
10
103.63379807472228
20
-66.104928684234764
30
0
11
106.78168482780455
21
-66.104928684234778
31
0
0
LINE
5
196
100
AcDbEntity
8
0
100
AcDbLine
10
106.78168482780455
20
-66.104928684234778
30
0
11
106.78168482780455
21
-72.949997615814368
31
0
0
LINE
5
197
100
AcDbEntity
8
0
100
AcDbLine
10
69.792249631881717
20
-73.500440694496817
30
0
11
69.792249631881717
21
-66.37795292544493
31
0
0
SPLINE
5
198
100
AcDbEntity
8
0
100
AcDbSpline
70
0
71
2
72
6
73
3
74
0
42
0.000000001
43
0.0000000001
44
0.0000000001
40
0.05176583298920532
40
0.05176583298920532
40
0.05176583298920532
40
1
40
1
40
1
10
69.792249631881745
20
-66.37795292544493
30
0
10
76.478870820999148
20
-65.703191353943012
30
0
10
76.478870820999148
20
-52.668308448791649
30
0
0
SPLINE
5
199
100
AcDbEntity
8
0
100
AcDbSpline
70
0
71
2
72
6
73
3
74
0
42
0.000000001
43
0.0000000001
44
0.0000000001
40
0
40
0
40
0
40
0.94823416700299212
40
0.94823416700299212
40
0.94823416700299212
10
76.478870820999148
20
-52.668308448791649
30
0
10
76.478870820999163
20
-40.167644650571468
30
0
10
69.792249631991808
20
-39.520537376041055
30
0
0
LINE
5
200
100
AcDbEntity
8
0
100
AcDbLine
10
69.792249631991808
20
-39.520537376041048
30
0
11
69.792249631881717
21
-32.399214274425425
31
0
0
SPLINE
5
201
100
AcDbEntity
8
0
100
AcDbSpline
70
0
71
2
72
6
73
3
74
0
42
0.000000001
43
0.0000000001
44
0.0000000001
40
0.024917577316820923
40
0.024917577316820923
40
0.024917577316820923
40
1
40
1
40
1
10
69.792249631881745
20
-32.399214274425418
30
0
10
84.281686258316057
20
-32.891992164481621
30
0
10
84.281686258316043
20
-52.668308448791656
30
0
0
SPLINE
5
202
100
AcDbEntity
8
0
100
AcDbSpline
70
0
71
2
72
6
73
3
74
0
42
0.000000001
43
0.0000000001
44
0.0000000001
40
0
40
0
40
0
40
0.97508242268312872
40
0.97508242268312872
40
0.97508242268312872
10
84.281686258316043
20
-52.668308448791656
30
0
10
84.281686258316029
20
-72.993974343059463
30
0
10
69.792249631883209
20
-73.500440694496774
30
0
0
LINE
5
203
100
AcDbEntity
8
0
100
AcDbLine
10
68.292249631881731
20
-32.399214428614513
30
0
11
68.292249631881731
21
-39.520537837497933
31
0
0
SPLINE
5
204
100
AcDbEntity
8
0
100
AcDbSpline
70
0
71
2
72
6
73
3
74
0
42
0.000000001
43
0.0000000001
44
0.0000000001
40
0.051766171092226712
40
0.051766171092226712
40
0.051766171092226712
40
1
40
1
40
1
10
68.292249631881702
20
-39.52053783749794
30
0
10
61.605633211135867
20
-40.167649107713821
30
0
10
61.605633211135867
20
-52.668308448791649
30
0
0
SPLINE
5
205
100
AcDbEntity
8
0
100
AcDbSpline
70
0
71
2
72
6
73
3
74
0
42
0.000000001
43
0.0000000001
44
0.0000000001
40
0
40
0
40
0
40
0.94823382890728924
40
0.94823382890728924
40
0.94823382890728924
10
61.605633211135867
20
-52.668308448791649
30
0
10
61.605633211135867
20
-65.703186706209621
30
0
10
68.292249631874867
20
-66.377952444255769
30
0
0
LINE
5
206
100
AcDbEntity
8
0
100
AcDbLine
10
68.292249631874867
20
-66.377952444255769
30
0
11
68.292249631881731
21
-73.500440536024627
31
0
0
SPLINE
5
207
100
AcDbEntity
8
0
100
AcDbSpline
70
0
71
2
72
6
73
3
74
0
42
0.000000001
43
0.0000000001
44
0.0000000001
40
0.02491772986696408
40
0.02491772986696408
40
0.02491772986696408
40
1
40
1
40
1
10
68.292249631880225
20
-73.500440536024584
30
0
10
53.802813005447391
20
-72.993971163141396
30
0
10
53.802813005447391
20
-52.668308448791649
30
0
0
SPLINE
5
208
100
AcDbEntity
8
0
100
AcDbSpline
70
0
71
2
72
6
73
3
74
0
42
0.000000001
43
0.0000000001
44
0.0000000001
40
0
40
0
40
0
40
0.9750822701317764
40
0.9750822701317764
40
0.9750822701317764
10
53.802813005447391
20
-52.668308448791649
30
0
10
53.802813005447412
20
-32.891995258481387
30
0
10
68.292249631842807
20
-32.399214428615849
30
0
0
LWPOLYLINE
5
209
100
AcDbEntity
8
0
100
AcDbPolyline
90
12
70
1
43
0.0
10
-15.598574566841119
20
-134.60493011474611
10
-15.598574566841119
20
-142.95000000000002
10
16.021136355400092
20
-142.95000000000005
10
16.021136355400092
20
-134.60493011474614
10
4.8943796873092715
20
-134.60493011474614
10
4.8943796873092715
20
-101.33027954101566
10
16.021136355400092
20
-101.33027954101566
10
16.021136355400092
20
-92.950000000000031
10
-15.598574566841119
20
-92.950000000000017
10
-15.598574566841119
20
-101.33027954101564
10
-4.4013985872268613
20
-101.33027954101564
10
-4.4013985872268613
20
-134.60493011474611
0
LWPOLYLINE
5
210
100
AcDbEntity
8
0
100
AcDbPolyline
90
12
70
1
43
0.0
10
-7.2816812872886594
20
-179.52746434211724
10
-7.2816812872886594
20
-182.94999880790704
10
6.4366281151771609
20
-182.94999880790704
10
6.4366281151771609
20
-162.94999999999993
10
-7.2816812872886594
20
-162.94999999999993
10
-7.2816812872886594
20
-166.37253446578973
10
2.7183187127113406
20
-166.37253446578973
10
2.7183187127113406
20
-171.2457744598388
10
-4.7464716315269406
20
-171.2457744598388
10
-4.7464716315269406
20
-174.68239350318902
10
2.7183187127113406
20
-174.68239350318902
10
2.7183187127113406
20
-179.52746434211724
0
LINE
5
211
100
AcDbEntity
8
0
100
AcDbLine
10
-11.746474790573114
20
-41.175350379943971
30
0
11
-13.042251157760596
21
-34.302114677429323
31
0
0
SPLINE
5
212
100
AcDbEntity
8
0
100
AcDbSpline
70
0
71
2
72
6
73
3
74
0
42
0.000000001
43
0.0000000001
44
0.0000000001
40
0
40
0
40
0
40
1
40
1
40
1
10
-13.042251157760596
20
-34.302114677429323
30
0
10
-8.1408420085906741
20
-32.386621665954713
30
0
10
-2.7323928356170413
20
-32.386621665954721
30
0
0
SPLINE
5
213
100
AcDbEntity
8
0
100
AcDbSpline
70
0
71
2
72
6
73
3
74
0
42
0.000000001
43
0.0000000001
44
0.0000000001
40
0
40
0
40
0
40
1
40
1
40
1
10
-2.7323928356170413
20
-32.386621665954721
30
0
10
16.394365739822412
20
-32.386621665954721
30
0
10
16.394365739822394
20
-53.00633831024183
30
0
0
SPLINE
5
214
100
AcDbEntity
8
0
100
AcDbSpline
70
0
71
2
72
6
73
3
74
0
42
0.000000001
43
0.0000000001
44
0.0000000001
40
0
40
0
40
0
40
1
40
1
40
1
10
16.394365739822394
20
-53.00633831024183
30
0
10
16.394365739822394
20
-62.780987453460824
30
0
10
11.57746167182923
20
-68.147184085846078
30
0
0
SPLINE
5
215
100
AcDbEntity
8
0
100
AcDbSpline
70
0
71
2
72
6
73
3
74
0
42
0.000000001
43
0.0000000001
44
0.0000000001
40
0
40
0
40
0
40
1
40
1
40
1
10
11.57746167182923
20
-68.147184085846078
30
0
10
6.76056714057923
20
-73.513383102417123
30
0
10
-2.0563331127166684
20
-73.513383102417123
30
0
0
SPLINE
5
216
100
AcDbEntity
8
0
100
AcDbSpline
70
0
71
2
72
6
73
3
74
0
42
0.000000001
43
0.0000000001
44
0.0000000001
40
0
40
0
40
0
40
1
40
1
40
1
10
-2.0563331127166684
20
-73.513383102417123
30
0
10
-6.0281672954559262
20
-73.513383102417123
30
0
10
-9.0985885143279965
20
-72.231692504882943
30
0
0
SPLINE
5
217
100
AcDbEntity
8
0
100
AcDbSpline
70
0
71
2
72
6
73
3
74
0
42
0.000000001
43
0.0000000001
44
0.0000000001
40
0
40
0
40
0
40
1
40
1
40
1
10
-9.0985885143279965
20
-72.231692504882943
30
0
10
-12.169019269943231
20
-70.950001907348764
30
0
10
-13.746472883224481
20
-68.583804798126351
30
0
0
LINE
5
218
100
AcDbEntity
8
0
100
AcDbLine
10
-13.746472883224481
20
-68.583804798126351
30
0
11
-9.5774665355682309
21
-63.119014930725221
31
0
0
SPLINE
5
219
100
AcDbEntity
8
0
100
AcDbSpline
70
0
71
2
72
6
73
3
74
0
42
0.000000001
43
0.0000000001
44
0.0000000001
40
0
40
0
40
0
40
1
40
1
40
1
10
-9.5774665355682309
20
-63.119014930725221
30
0
10
-8.3098617076873715
20
-64.696480464935433
30
0
10
-6.3521113872528012
20
-65.55563611984266
30
0
0
SPLINE
5
220
100
AcDbEntity
8
0
100
AcDbSpline
70
0
71
2
72
6
73
3
74
0
42
0.000000001
43
0.0000000001
44
0.0000000001
40
0
40
0
40
0
40
1
40
1
40
1
10
-6.3521113872528012
20
-65.55563611984266
30
0
10
-4.3943610668182309
20
-66.414789390564096
30
0
10
-2.1126761913299497
20
-66.414789390564096
30
0
0
SPLINE
5
221
100
AcDbEntity
8
0
100
AcDbSpline
70
0
71
2
72
6
73
3
74
0
42
0.000000001
43
0.0000000001
44
0.0000000001
40
0
40
0
40
0
40
1
40
1
40
1
10
-2.1126761913299497
20
-66.414789390564096
30
0
10
2.732389879226691
20
-66.414789390564096
30
0
10
5.647886705398566
20
-62.992254924774301
30
0
0
SPLINE
5
222
100
AcDbEntity
8
0
100
AcDbSpline
70
0
71
2
72
6
73
3
74
0
42
0.000000001
43
0.0000000001
44
0.0000000001
40
0
40
0
40
0
40
1
40
1
40
1
10
5.647886705398566
20
-62.992254924774301
30
0
10
8.563383531570441
20
-59.569718074798715
30
0
10
8.563383531570441
20
-53.288029861450326
30
0
0
SPLINE
5
223
100
AcDbEntity
8
0
100
AcDbSpline
70
0
71
2
72
6
73
3
74
0
42
0.000000001
43
0.0000000001
44
0.0000000001
40
0
40
0
40
0
40
1
40
1
40
1
10
8.563383531570441
20
-53.288029861450326
30
0
10
8.563383531570441
20
-39.485210609436166
30
0
10
-3.6901393413543637
20
-39.485210609436166
30
0
0
SPLINE
5
224
100
AcDbEntity
8
0
100
AcDbSpline
70
0
71
2
72
6
73
3
74
0
42
0.000000001
43
0.0000000001
44
0.0000000001
40
0
40
0
40
0
40
1
40
1
40
1
10
-3.6901393413543637
20
-39.485210609436166
30
0
10
-7.77465014457702
20
-39.485210609436159
30
0
10
-11.746474790573114
20
-41.175350379943971
30
0
0
LINE
5
225
100
AcDbEntity
8
0
100
AcDbLine
10
-68.355634915828702
20
-162.69416241528444
30
0
11
-68.355634915828702
21
-166.29240790258561
31
0
0
SPLINE
5
226
100
AcDbEntity
8
0
100
AcDbSpline
70
0
71
2
72
6
73
3
74
0
42
0.000000001
43
0.0000000001
44
0.0000000001
40
0.10652820291504278
40
0.10652820291504278
40
0.10652820291504278
40
1
40
1
40
1
10
-68.355634915828716
20
-166.29240790258561
30
0
10
-71.323953855037686
20
-166.91979116555785
30
0
10
-71.323953855037686
20
-172.80915422439568
30
0
0
SPLINE
5
227
100
AcDbEntity
8
0
100
AcDbSpline
70
0
71
2
72
6
73
3
74
0
42
0.000000001
43
0.0000000001
44
0.0000000001
40
0
40
0
40
0
40
0.89347179708495716
40
0.89347179708495716
40
0.89347179708495716
10
-71.323953855037686
20
-172.80915422439568
30
0
10
-71.323953855037686
20
-178.95020073971548
30
0
10
-68.355634915828716
20
-179.60439538901022
30
0
0
LINE
5
228
100
AcDbEntity
8
0
100
AcDbLine
10
-68.355634915828716
20
-179.60439538901025
30
0
11
-68.355634915828702
21
-183.20512185960058
31
0
0
SPLINE
5
229
100
AcDbEntity
8
0
100
AcDbSpline
70
0
71
2
72
6
73
3
74
0
42
0.000000001
43
0.0000000001
44
0.0000000001
40
0.050490134456180828
40
0.050490134456180828
40
0.050490134456180828
40
1
40
1
40
1
10
-68.355634915833932
20
-183.20512185960024
30
0
10
-75.225359189510343
20
-182.70545624020309
30
0
10
-75.225359189510343
20
-172.80915422439568
30
0
0
SPLINE
5
230
100
AcDbEntity
8
0
100
AcDbSpline
70
0
71
2
72
6
73
3
74
0
42
0.000000001
43
0.0000000001
44
0.0000000001
40
0
40
0
40
0
40
0.94950986554418071
40
0.94950986554418071
40
0.94950986554418071
10
-75.225359189510343
20
-172.80915422439568
30
0
10
-75.225359189510343
20
-163.18032337930535
30
0
10
-68.355634915828702
20
-162.69416241528444
30
0
0
LINE
5
231
100
AcDbEntity
8
0
100
AcDbLine
10
-100.76054720878597
20
-47.597889137268169
30
0
11
-95.47183566093446
21
-47.597889137268169
31
0
0
LINE
5
232
100
AcDbEntity
8
0
100
AcDbLine
10
-95.47183566093446
20
-47.597889137268169
30
0
11
-95.47183566093446
21
-54.442958068847759
31
0
0
LINE
5
233
100
AcDbEntity
8
0
100
AcDbLine
10
-95.47183566093446
20
-54.442958068847759
30
0
11
-100.76054720878599
21
-54.442958068847759
31
0
0
SPLINE
5
234
100
AcDbEntity
8
0
100
AcDbSpline
70
0
71
2
72
6
73
3
74
0
42
0.000000001
43
0.0000000001
44
0.0000000001
40
0
40
0
40
0
40
1
40
1
40
1
10
-100.76054720878599
20
-54.442958068847759
30
0
10
-103.35209994316099
20
-54.442958068847759
30
0
10
-104.7887149333954
20
-55.978168678283794
30
0
0
SPLINE
5
235
100
AcDbEntity
8
0
100
AcDbSpline
70
0
71
2
72
6
73
3
74
0
42
0.000000001
43
0.0000000001
44
0.0000000001
40
0
40
0
40
0
40
1
40
1
40
1
10
-104.7887149333954
20
-55.978168678283794
30
0
10
-106.22532992362977
20
-57.513379287719829
30
0
10
-106.22532992362977
20
-60.273942184448345
30
0
0
SPLINE
5
236
100
AcDbEntity
8
0
100
AcDbSpline
70
0
71
2
72
6
73
3
74
0
42
0.000000001
43
0.0000000001
44
0.0000000001
40
0
40
0
40
0
40
1
40
1
40
1
10
-106.22532992362977
20
-60.273942184448345
30
0
10
-106.22532992362977
20
-63.06267423629771
30
0
10
-104.7887149333954
20
-64.583801460266216
30
0
0
SPLINE
5
237
100
AcDbEntity
8
0
100
AcDbSpline
70
0
71
2
72
6
73
3
74
0
42
0.000000001
43
0.0000000001
44
0.0000000001
40
0
40
0
40
0
40
1
40
1
40
1
10
-104.7887149333954
20
-64.583801460266216
30
0
10
-103.35209994316102
20
-66.104928684234721
30
0
10
-100.76054720878602
20
-66.104928684234721
30
0
0
LINE
5
238
100
AcDbEntity
8
0
100
AcDbLine
10
-100.76054720878602
20
-66.104928684234721
30
0
11
-95.47183566093446
21
-66.104928684234721
31
0
0
LINE
5
239
100
AcDbEntity
8
0
100
AcDbLine
10
-95.47183566093446
20
-66.104928684234721
30
0
11
-95.47183566093446
21
-72.949997615814311
31
0
0
LINE
5
240
100
AcDbEntity
8
0
100
AcDbLine
10
-95.47183566093446
20
-72.949997615814311
30
0
11
-100.76054720878602
21
-72.949997615814311
31
0
0
SPLINE
5
241
100
AcDbEntity
8
0
100
AcDbSpline
70
0
71
2
72
6
73
3
74
0
42
0.000000001
43
0.0000000001
44
0.0000000001
40
0
40
0
40
0
40
1
40
1
40
1
10
-100.76054720878602
20
-72.949997615814311
30
0
10
-107.21127657890321
20
-72.949997615814311
30
0
10
-110.73239474296571
20
-69.795068931579692
30
0
0
SPLINE
5
242
100
AcDbEntity
8
0
100
AcDbSpline
70
0
71
2
72
6
73
3
74
0
42
0.000000001
43
0.0000000001
44
0.0000000001
40
0
40
0
40
0
40
1
40
1
40
1
10
-110.73239474296571
20
-69.795068931579692
30
0
10
-114.25351290702821
20
-66.640140247345073
30
0
10
-114.25351290702821
20
-60.837322902679546
30
0
0
SPLINE
5
243
100
AcDbEntity
8
0
100
AcDbSpline
70
0
71
2
72
6
73
3
74
0
42
0.000000001
43
0.0000000001
44
0.0000000001
40
0
40
0
40
0
40
1
40
1
40
1
10
-114.25351290702821
20
-60.837322902679546
30
0
10
-114.25351290702818
20
-54.555629920959575
30
0
10
-110.73239474296568
20
-51.076759529113872
30
0
0
SPLINE
5
244
100
AcDbEntity
8
0
100
AcDbSpline
70
0
71
2
72
6
73
3
74
0
42
0.000000001
43
0.0000000001
44
0.0000000001
40
0
40
0
40
0
40
0.30943384713501998
40
0.30943384713501998
40
0.30943384713501998
10
-110.73239474296568
20
-51.076759529113872
30
0
10
-109.64284160324281
20
-50.000279280080946
30
0
10
-108.27278022441465
20
-49.256898455871138
30
0
0
LINE
5
245
100
AcDbEntity
8
0
100
AcDbLine
10
-108.27278022441465
20
-49.256898455871138
30
0
11
-115.71831851005552
21
-32.950000000000102
31
0
0
LINE
5
246
100
AcDbEntity
8
0
100
AcDbLine
10
-115.71831851005552
20
-32.950000000000102
30
0
11
-106.84506564140318
21
-32.950000000000102
31
0
0
LINE
5
247
100
AcDbEntity
8
0
100
AcDbLine
10
-106.84506564140318
20
-32.950000000000102
30
0
11
-100.96801136442454
21
-47.598795362096027
31
0
0
SPLINE
5
248
100
AcDbEntity
8
0
100
AcDbSpline
70
0
71
2
72
6
73
3
74
0
42
0.000000001
43
0.0000000001
44
0.0000000001
40
0.98386017380341717
40
0.98386017380341717
40
0.98386017380341717
40
1
40
1
40
1
10
-100.96801136442457
20
-47.598795362096034
30
0
10
-100.86466085966087
20
-47.597889137268169
30
0
10
-100.76054720878599
20
-47.597889137268169
30
0
0
LWPOLYLINE
5
249
100
AcDbEntity
8
0
100
AcDbPolyline
90
4
70
1
43
0.0
10
-93.971835660934445
20
-72.949997615814311
10
-86.535197782516477
20
-72.94999761581434
10
-86.535197782516462
20
-32.950000000000124
10
-93.971835660934445
20
-32.950000000000102
0
LINE
5
250
100
AcDbEntity
8
0
100
AcDbLine
10
-66.855634915828702
20
-183.20512436104354
30
0
11
-66.855634915828702
21
-179.60440210039587
31
0
0
SPLINE
5
251
100
AcDbEntity
8
0
100
AcDbSpline
70
0
71
2
72
6
73
3
74
0
42
0.000000001
43
0.0000000001
44
0.0000000001
40
0.10652361975095895
40
0.10652361975095895
40
0.10652361975095895
40
1
40
1
40
1
10
-66.855634915828688
20
-179.60440210039587
30
0
10
-63.887315976619718
20
-178.95023224090434
30
0
10
-63.887315976619718
20
-172.80915422439568
30
0
0
SPLINE
5
252
100
AcDbEntity
8
0
100
AcDbSpline
70
0
71
2
72
6
73
3
74
0
42
0.000000001
43
0.0000000001
44
0.0000000001
40
0
40
0
40
0
40
0.89347638024904175
40
0.89347638024904175
40
0.89347638024904175
10
-63.887315976619718
20
-172.80915422439568
30
0
10
-63.887315976619718
20
-166.91976095540755
30
0
10
-66.855634915828688
20
-166.29240146625801
30
0
0
LINE
5
253
100
AcDbEntity
8
0
100
AcDbLine
10
-66.855634915828688
20
-166.29240146625796
30
0
11
-66.855634915828702
21
-162.69415998144888
31
0
0
SPLINE
5
254
100
AcDbEntity
8
0
100
AcDbSpline
70
0
71
2
72
6
73
3
74
0
42
0.000000001
43
0.0000000001
44
0.0000000001
40
0.050487757665603081
40
0.050487757665603081
40
0.050487757665603081
40
1
40
1
40
1
10
-66.855634915828702
20
-162.69415998144888
30
0
10
-59.985910642147061
20
-163.18029927664799
30
0
10
-59.985910642147061
20
-172.80915422439568
30
0
0
SPLINE
5
255
100
AcDbEntity
8
0
100
AcDbSpline
70
0
71
2
72
6
73
3
74
0
42
0.000000001
43
0.0000000001
44
0.0000000001
40
0
40
0
40
0
40
0.94951224233439779
40
0.94951224233439779
40
0.94951224233439779
10
-59.985910642147061
20
-172.80915422439568
30
0
10
-59.985910642147061
20
-182.7054810123916
30
0
10
-66.855634915828702
20
-183.20512436104354
30
0
0
LWPOLYLINE
5
256
100
AcDbEntity
8
0
100
AcDbPolyline
90
4
70
1
43
0.0
10
19.901412737369544
20
-182.94999880790704
10
23.619722139835364
20
-182.94999880790704
10
23.619722139835364
20
-162.94999999999993
10
19.901412737369544
20
-162.94999999999993
0
SPLINE
5
257
100
AcDbEntity
8
0
100
AcDbSpline
70
0
71
2
72
6
73
3
74
0
42
0.000000001
43
0.0000000001
44
0.0000000001
40
0.0071470573435582444
40
0.0071470573435582444
40
0.0071470573435582444
40
1
40
1
40
1
10
18.401412737369544
20
-182.94947361487783
30
0
10
9.1408479332923953
20
-182.87651499436166
30
0
10
9.1408479332923953
20
-172.66831083297723
30
0
0
SPLINE
5
258
100
AcDbEntity
8
0
100
AcDbSpline
70
0
71
2
72
6
73
3
74
0
42
0.000000001
43
0.0000000001
44
0.0000000001
40
0
40
0
40
0
40
0.99285294265553503
40
0.99285294265553503
40
0.99285294265553503
10
9.1408479332923953
20
-172.66831083297723
30
0
10
9.1408479332923953
20
-163.01945732481457
30
0
10
18.401412737352626
20
-162.95049641548337
30
0
0
LINE
5
259
100
AcDbEntity
8
0
100
AcDbLine
10
18.401412737352626
20
-162.95049641548337
30
0
11
18.40141273736954
21
-166.50024022735039
31
0
0
SPLINE
5
260
100
AcDbEntity
8
0
100
AcDbSpline
70
0
71
2
72
6
73
3
74
0
42
0.000000001
43
0.0000000001
44
0.0000000001
40
0.024509441379591313
40
0.024509441379591313
40
0.024509441379591313
40
1
40
1
40
1
10
18.40141273736954
20
-166.50024022735039
30
0
10
15.755082504640068
20
-166.53778697935766
30
0
10
14.415496599674231
20
-168.0697171211242
30
0
0
SPLINE
5
261
100
AcDbEntity
8
0
100
AcDbSpline
70
0
71
2
72
6
73
3
74
0
42
0.000000001
43
0.0000000001
44
0.0000000001
40
0
40
0
40
0
40
1
40
1
40
1
10
14.415496599674231
20
-168.0697171211242
30
0
10
13.042253267765052
20
-169.64013977050774
30
0
10
13.042253267765052
20
-172.66831083297723
30
0
0
SPLINE
5
262
100
AcDbEntity
8
0
100
AcDbSpline
70
0
71
2
72
6
73
3
74
0
42
0.000000001
43
0.0000000001
44
0.0000000001
40
0
40
0
40
0
40
1
40
1
40
1
10
13.042253267765052
20
-172.66831083297723
30
0
10
13.042253267765052
20
-175.99225325584405
30
0
10
14.415496599674231
20
-177.69647879600518
30
0
0
SPLINE
5
263
100
AcDbEntity
8
0
100
AcDbSpline
70
0
71
2
72
6
73
3
74
0
42
0.000000001
43
0.0000000001
44
0.0000000001
40
0
40
0
40
0
40
0.97549055862040879
40
0.97549055862040879
40
0.97549055862040879
10
14.415496599674231
20
-177.69647879600518
30
0
10
15.75508250464007
20
-179.35893355731679
30
0
10
18.401412737369544
20
-179.39967939483537
30
0
0
LINE
5
264
100
AcDbEntity
8
0
100
AcDbLine
10
18.401412737369544
20
-179.39967939483535
30
0
11
18.401412737369544
21
-182.94947361487783
31
0
0
LINE
5
265
100
AcDbEntity
8
0
100
AcDbLine
10
41.478871417045596
20
-111.25986022949223
30
0
11
48.464789462089541
21
-111.25986022949223
31
0
0
LINE
5
266
100
AcDbEntity
8
0
100
AcDbLine
10
48.464789462089541
20
-111.25986022949223
30
0
11
48.464789462089541
21
-119.81619758605962
31
0
0
LINE
5
267
100
AcDbEntity
8
0
100
AcDbLine
10
48.464789462089541
20
-119.81619758605962
30
0
11
41.478871417045596
21
-119.81619758605962
31
0
0
SPLINE
5
268
100
AcDbEntity
8
0
100
AcDbSpline
70
0
71
2
72
6
73
3
74
0
42
0.000000001
43
0.0000000001
44
0.0000000001
40
0
40
0
40
0
40
1
40
1
40
1
10
41.478871417045596
20
-119.81619758605962
30
0
10
38.23944003582001
20
-119.81619758605962
30
0
10
36.443661761283877
20
-121.73520965576176
30
0
0
SPLINE
5
269
100
AcDbEntity
8
0
100
AcDbSpline
70
0
71
2
72
6
73
3
74
0
42
0.000000001
43
0.0000000001
44
0.0000000001
40
0
40
0
40
0
40
1
40
1
40
1
10
36.443661761283877
20
-121.73520965576176
30
0
10
34.647893023490909
20
-123.6542217254639
30
0
10
34.647893023490909
20
-127.10493011474613
30
0
0
SPLINE
5
270
100
AcDbEntity
8
0
100
AcDbSpline
70
0
71
2
72
6
73
3
74
0
42
0.000000001
43
0.0000000001
44
0.0000000001
40
0
40
0
40
0
40
1
40
1
40
1
10
34.647893023490909
20
-127.10493011474613
30
0
10
34.647893023490909
20
-130.5908433914185
30
0
10
36.443661761283877
20
-132.49225301742558
30
0
0
SPLINE
5
271
100
AcDbEntity
8
0
100
AcDbSpline
70
0
71
2
72
6
73
3
74
0
42
0.000000001
43
0.0000000001
44
0.0000000001
40
0
40
0
40
0
40
1
40
1
40
1
10
36.443661761283877
20
-132.49225301742558
30
0
10
38.23944003582001
20
-134.39366264343266
30
0
10
41.478871417045596
20
-134.39366264343266
30
0
0
LINE
5
272
100
AcDbEntity
8
0
100
AcDbLine
10
41.478871417045596
20
-134.39366264343266
30
0
11
48.464789462089541
21
-134.39366264343266
31
0
0
LINE
5
273
100
AcDbEntity
8
0
100
AcDbLine
10
48.464789462089541
20
-134.39366264343266
30
0
11
48.464789462089541
21
-142.95000000000005
31
0
0
LINE
5
274
100
AcDbEntity
8
0
100
AcDbLine
10
48.464789462089541
20
-142.95000000000005
30
0
11
41.478871417045596
21
-142.95000000000005
31
0
0
SPLINE
5
275
100
AcDbEntity
8
0
100
AcDbSpline
70
0
71
2
72
6
73
3
74
0
42
0.000000001
43
0.0000000001
44
0.0000000001
40
0
40
0
40
0
40
1
40
1
40
1
10
41.478871417045596
20
-142.95000000000005
30
0
10
33.415497851371768
20
-142.95000000000005
30
0
10
29.014081072807318
20
-139.00633735656743
30
0
0
SPLINE
5
276
100
AcDbEntity
8
0
100
AcDbSpline
70
0
71
2
72
6
73
3
74
0
42
0.000000001
43
0.0000000001
44
0.0000000001
40
0
40
0
40
0
40
1
40
1
40
1
10
29.014081072807318
20
-139.00633735656743
30
0
10
24.612673830986029
20
-135.06267471313481
30
0
10
24.612673830986029
20
-127.80915184020999
30
0
0
SPLINE
5
277
100
AcDbEntity
8
0
100
AcDbSpline
70
0
71
2
72
6
73
3
74
0
42
0.000000001
43
0.0000000001
44
0.0000000001
40
0
40
0
40
0
40
1
40
1
40
1
10
24.612673830986029
20
-127.80915184020999
30
0
10
24.612673830986029
20
-119.95704097747806
30
0
10
29.014081072807318
20
-115.60845298767093
30
0
0
SPLINE
5
278
100
AcDbEntity
8
0
100
AcDbSpline
70
0
71
2
72
6
73
3
74
0
42
0.000000001
43
0.0000000001
44
0.0000000001
40
0
40
0
40
0
40
0.30943234405266118
40
0.30943234405266118
40
0.30943234405266118
10
29.014081072807318
20
-115.60845298767093
30
0
10
30.376021783751234
20
-114.26285773717726
30
0
10
32.088588908380238
20
-113.33363317918997
30
0
0
LINE
5
279
100
AcDbEntity
8
0
100
AcDbLine
10
32.088588908380238
20
-113.33363317918997
30
0
11
22.781695437431342
21
-92.950000000000031
31
0
0
LINE
5
280
100
AcDbEntity
8
0
100
AcDbLine
10
22.781695437431342
20
-92.950000000000031
30
0
11
33.87324244976044
21
-92.950000000000031
31
0
0
LINE
5
281
100
AcDbEntity
8
0
100
AcDbLine
10
33.87324244976044
20
-92.950000000000031
30
0
11
41.219566413504076
21
-111.260992801558
31
0
0
SPLINE
5
282
100
AcDbEntity
8
0
100
AcDbSpline
70
0
71
2
72
6
73
3
74
0
42
0.000000001
43
0.0000000001
44
0.0000000001
40
0.98386167141234238
40
0.98386167141234238
40
0.98386167141234238
40
1
40
1
40
1
10
41.219566413504083
20
-111.260992801558
30
0
10
41.348742044917721
20
-111.25986022949223
30
0
10
41.478871417045596
20
-111.25986022949223
30
0
0
LWPOLYLINE
5
283
100
AcDbEntity
8
0
100
AcDbPolyline
90
4
70
1
43
0.0
10
49.964789462089541
20
-142.95000000000005
10
59.260567736625674
20
-142.95000000000005
10
59.260567736625674
20
-92.950000000000045
10
49.964789462089541
20
-92.950000000000045
0
LWPOLYLINE
5
284
100
AcDbEntity
8
0
100
AcDbPolyline
90
4
70
1
43
0.0
10
100.80985934734345
20
-92.950000000000074
10
91.514081072807315
20
-92.950000000000045
10
91.514081072807315
20
-142.95000000000007
10
100.80985934734345
20
-142.95000000000007
0
LINE
5
285
100
AcDbEntity
8
0
100
AcDbLine
10
90.014081072807315
20
-142.95000000000007
30
0
11
85.352114748954776
21
-142.95000000000005
31
0
0
SPLINE
5
286
100
AcDbEntity
8
0
100
AcDbSpline
70
0
71
2
72
6
73
3
74
0
42
0.000000001
43
0.0000000001
44
0.0000000001
40
0
40
0
40
0
40
1
40
1
40
1
10
85.352114748954776
20
-142.95000000000005
30
0
10
77.464789462089541
20
-142.95000000000005
30
0
10
73.151406359672549
20
-139.72816867828374
30
0
0
SPLINE
5
287
100
AcDbEntity
8
0
100
AcDbSpline
70
0
71
2
72
6
73
3
74
0
42
0.000000001
43
0.0000000001
44
0.0000000001
40
0
40
0
40
0
40
1
40
1
40
1
10
73.151406359672549
20
-139.72816867828374
30
0
10
68.838023257255557
20
-136.50633735656743
30
0
10
68.838023257255557
20
-130.55563373565678
30
0
0
SPLINE
5
288
100
AcDbEntity
8
0
100
AcDbSpline
70
0
71
2
72
6
73
3
74
0
42
0.000000001
43
0.0000000001
44
0.0000000001
40
0
40
0
40
0
40
1
40
1
40
1
10
68.838023257255557
20
-130.55563373565678
30
0
10
68.838023257255557
20
-125.41479034423833
30
0
10
72.183097910881045
20
-122.66830844879155
30
0
0
SPLINE
5
289
100
AcDbEntity
8
0
100
AcDbSpline
70
0
71
2
72
6
73
3
74
0
42
0.000000001
43
0.0000000001
44
0.0000000001
40
0
40
0
40
0
40
0.90604182937271149
40
0.90604182937271149
40
0.90604182937271149
10
72.183097910881045
20
-122.66830844879155
30
0
10
75.213871149096065
20
-120.17988528824604
30
0
10
80.5281677961257
20
-119.9460776003346
30
0
0
LINE
5
290
100
AcDbEntity
8
0
100
AcDbLine
10
80.5281677961257
20
-119.9460776003346
30
0
11
80.528167796134952
21
-118.79506988525395
31
0
0
LINE
5
291
100
AcDbEntity
8
0
100
AcDbLine
10
80.528167796134952
20
-118.79506988525395
30
0
11
78.908452105522159
21
-118.79506988525395
31
0
0
SPLINE
5
292
100
AcDbEntity
8
0
100
AcDbSpline
70
0
71
2
72
6
73
3
74
0
42
0.000000001
43
0.0000000001
44
0.0000000001
40
0
40
0
40
0
40
1
40
1
40
1
10
78.908452105522159
20
-118.79506988525395
30
0
10
72.394365382194522
20
-118.79506988525395
30
0
10
68.855632853507998
20
-115.64366264343266
30
0
0
SPLINE
5
293
100
AcDbEntity
8
0
100
AcDbSpline
70
0
71
2
72
6
73
3
74
0
42
0.000000001
43
0.0000000001
44
0.0000000001
40
0
40
0
40
0
40
1
40
1
40
1
10
68.855632853507998
20
-115.64366264343266
30
0
10
65.316900324821475
20
-112.49225540161137
30
0
10
65.316900324821475
20
-106.68239517211919
30
0
0
SPLINE
5
294
100
AcDbEntity
8
0
100
AcDbSpline
70
0
71
2
72
6
73
3
74
0
42
0.000000001
43
0.0000000001
44
0.0000000001
40
0
40
0
40
0
40
1
40
1
40
1
10
65.316900324821475
20
-106.68239517211919
30
0
10
65.316900324821475
20
-100.13309879302983
30
0
10
69.419011187553409
20
-96.541547012329147
30
0
0
SPLINE
5
295
100
AcDbEntity
8
0
100
AcDbSpline
70
0
71
2
72
6
73
3
74
0
42
0.000000001
43
0.0000000001
44
0.0000000001
40
0
40
0
40
0
40
1
40
1
40
1
10
69.419011187553409
20
-96.541547012329147
30
0
10
73.521126818656924
20
-92.950000000000045
30
0
10
81.056336474418643
20
-92.950000000000045
30
0
0
LINE
5
296
100
AcDbEntity
8
0
100
AcDbLine
10
81.056336474418643
20
-92.950000000000045
30
0
11
90.014081072807315
21
-92.950000000000045
31
0
0
LINE
5
297
100
AcDbEntity
8
0
100
AcDbLine
10
90.014081072807315
20
-92.950000000000045
30
0
11
90.014081072807315
21
-101.50633735656743
31
0
0
LINE
5
298
100
AcDbEntity
8
0
100
AcDbLine
10
90.014081072807315
20
-101.50633735656743
30
0
11
83.098591876029971
21
-101.50633735656743
31
0
0
SPLINE
5
299
100
AcDbEntity
8
0
100
AcDbSpline
70
0
71
2
72
6
73
3
74
0
42
0.000000001
43
0.0000000001
44
0.0000000001
40
0
40
0
40
0
40
1
40
1
40
1
10
83.098591876029971
20
-101.50633735656743
30
0
10
79.26055819988251
20
-101.50633735656743
30
0
10
77.165488314628604
20
-103.30211086273198
30
0
0
SPLINE
5
300
100
AcDbEntity
8
0
100
AcDbSpline
70
0
71
2
72
6
73
3
74
0
42
0.000000001
43
0.0000000001
44
0.0000000001
40
0
40
0
40
0
40
1
40
1
40
1
10
77.165488314628604
20
-103.30211086273198
30
0
10
75.070418429374698
20
-105.09788436889653
30
0
10
75.070418429374698
20
-108.33732528686528
30
0
0
SPLINE
5
301
100
AcDbEntity
8
0
100
AcDbSpline
70
0
71
2
72
6
73
3
74
0
42
0.000000001
43
0.0000000001
44
0.0000000001
40
0
40
0
40
0
40
1
40
1
40
1
10
75.070418429374698
20
-108.33732528686528
30
0
10
75.070418429374698
20
-111.57676143646245
30
0
10
77.271126818656924
20
-113.31972045898442
30
0
0
SPLINE
5
302
100
AcDbEntity
8
0
100
AcDbSpline
70
0
71
2
72
6
73
3
74
0
42
0.000000001
43
0.0000000001
44
0.0000000001
40
0
40
0
40
0
40
1
40
1
40
1
10
77.271126818656924
20
-113.31972045898442
30
0
10
79.471825671195987
20
-115.06267471313481
30
0
10
83.591546130180362
20
-115.06267471313481
30
0
0
LINE
5
303
100
AcDbEntity
8
0
100
AcDbLine
10
83.591546130180362
20
-115.06267471313481
30
0
11
90.014081072807315
21
-115.06267471313481
31
0
0
LINE
5
304
100
AcDbEntity
8
0
100
AcDbLine
10
90.014081072807315
20
-115.06267471313481
30
0
11
90.014081072807315
21
-123.65422172546391
31
0
0
LINE
5
305
100
AcDbEntity
8
0
100
AcDbLine
10
90.014081072807315
20
-123.65422172546391
30
0
11
85.211266589164737
21
-123.65422172546391
31
0
0
SPLINE
5
306
100
AcDbEntity
8
0
100
AcDbSpline
70
0
71
2
72
6
73
3
74
0
42
0.000000001
43
0.0000000001
44
0.0000000001
40
0
40
0
40
0
40
1
40
1
40
1
10
85.211266589164737
20
-123.65422172546391
30
0
10
81.936616015434268
20
-123.65422172546391
30
0
10
80.264081072807315
20
-125.08027954101567
30
0
0
SPLINE
5
307
100
AcDbEntity
8
0
100
AcDbSpline
70
0
71
2
72
6
73
3
74
0
42
0.000000001
43
0.0000000001
44
0.0000000001
40
0
40
0
40
0
40
1
40
1
40
1
10
80.264081072807315
20
-125.08027954101567
30
0
10
78.591546130180362
20
-126.50633735656743
30
0
10
78.591546130180362
20
-129.28802413940434
30
0
0
SPLINE
5
308
100
AcDbEntity
8
0
100
AcDbSpline
70
0
71
2
72
6
73
3
74
0
42
0.000000001
43
0.0000000001
44
0.0000000001
40
0
40
0
40
0
40
1
40
1
40
1
10
78.591546130180362
20
-129.28802413940434
30
0
10
78.591546130180362
20
-131.82323856353764
30
0
10
80.369719576835635
20
-133.10844821929936
30
0
0
SPLINE
5
309
100
AcDbEntity
8
0
100
AcDbSpline
70
0
71
2
72
6
73
3
74
0
42
0.000000001
43
0.0000000001
44
0.0000000001
40
0
40
0
40
0
40
1
40
1
40
1
10
80.369719576835635
20
-133.10844821929936
30
0
10
82.147883486747745
20
-134.39366264343266
30
0
10
85.704220843315127
20
-134.39366264343266
30
0
0
LINE
5
310
100
AcDbEntity
8
0
100
AcDbLine
10
85.704220843315127
20
-134.39366264343266
30
0
11
90.014081072807315
21
-134.39366264343266
31
0
0
LINE
5
311
100
AcDbEntity
8
0
100
AcDbLine
10
90.014081072807315
20
-134.39366264343266
30
0
11
90.014081072807315
21
-142.95000000000007
31
0
0
LWPOLYLINE
5
312
100
AcDbEntity
8
0
100
AcDbPolyline
90
8
70
1
43
0.0
10
139.70000000000002
20
-185.90000000000003
42
-0.4142135623730947
10
109.7
20
-215.90000000000001
10
-109.7
20
-215.90000000000001
42
-0.41421356237309503
10
-139.70000000000002
20
-185.90000000000001
10
-139.70000000000002
20
-30.000000000000004
42
-0.41421356237309531
10
-109.7
20
0
10
109.70000000000005
20
-1.7763568394002505e-14
42
-0.41421356237309453
10
139.69999999999996
20
-30
0
ENDSEC
0
SECTION
2
OBJECTS
0
DICTIONARY
5
C
100
AcDbDictionary
3
ACAD_GROUP
350
D
3
ACAD_MLINESTYLE
350
17
0
DICTIONARY
5
D
100
AcDbDictionary
0
DICTIONARY
5
1A
330
C
100
AcDbDictionary
0
DICTIONARY
5
17
100
AcDbDictionary
0
ENDSEC
0
EOF
