0
SECTION
2
HEADER
9
$INSUNITS
70
4
9
$ACADVER
1
AC1014
9
$HANDSEED
5
FFFF
0
ENDSEC
0
SECTION
2
TABLES
0
TABLE
2
VPORT
5
8
100
AcDbSymbolTable
0
ENDTAB
0
TABLE
2
LTYPE
5
5
100
AcDbSymbolTable
0
LTYPE
5
14
100
AcDbSymbolTableRecord
100
AcDbLinetypeTableRecord
2
BYBLOCK
70
0
0
LTYPE
5
15
100
AcDbSymbolTableRecord
100
AcDbLinetypeTableRecord
2
BYLAYER
70
0
0
ENDTAB
0
TABLE
2
LAYER
5
2
100
AcDbSymbolTable
70
2
0
LAYER
5
50
100
AcDbSymbolTableRecord
100
AcDbLayerTableRecord
2
0
70
0
6
CONTINUOUS
0
ENDTAB
0
TABLE
2
STYLE
5
3
100
AcDbSymbolTable
70
1
0
STYLE
5
11
100
AcDbSymbolTableRecord
100
AcDbTextStyleTableRecord
2
STANDARD
70
0
0
ENDTAB
0
TABLE
2
VIEW
5
6
100
AcDbSymbolTable
70
0
0
ENDTAB
0
TABLE
2
UCS
5
7
100
AcDbSymbolTable
70
0
0
ENDTAB
0
TABLE
2
APPID
5
9
100
AcDbSymbolTable
70
2
0
APPID
5
12
100
AcDbSymbolTableRecord
100
AcDbRegAppTableRecord
2
ACAD
70
0
0
ENDTAB
0
TABLE
2
DIMSTYLE
5
A
100
AcDbSymbolTable
70
1
0
ENDTAB
0
TABLE
2
BLOCK_RECORD
5
1
100
AcDbSymbolTable
70
1
0
BLOCK_RECORD
5
1F
100
AcDbSymbolTableRecord
100
AcDbBlockTableRecord
2
*MODEL_SPACE
0
BLOCK_RECORD
5
1B
100
AcDbSymbolTableRecord
100
AcDbBlockTableRecord
2
*PAPER_SPACE
0
ENDTAB
0
ENDSEC
0
SECTION
2
BLOCKS
0
BLOCK
5
20
100
AcDbEntity
100
AcDbBlockBegin
2
*MODEL_SPACE
0
ENDBLK
5
21
100
AcDbEntity
100
AcDbBlockEnd
0
BLOCK
5
1C
100
AcDbEntity
100
AcDbBlockBegin
2
*PAPER_SPACE
0
ENDBLK
5
1D
100
AcDbEntity
100
AcDbBlockEnd
0
ENDSEC
0
SECTION
2
ENTITIES
0
LWPOLYLINE
5
100
100
AcDbEntity
8
0
100
AcDbPolyline
90
4
70
1
43
0.0
10
-127.98749999999959
20
-64.180000000000405
10
-127.98749999999959
20
-35.000000000000426
10
-131.1874999999996
20
-35.000000000000426
10
-131.1874999999996
20
-64.180000000000405
0
LWPOLYLINE
5
101
100
AcDbEntity
8
0
100
AcDbPolyline
90
4
70
1
43
0.0
10
-127.98749999999959
20
-122.54000000000036
10
-127.98749999999959
20
-93.360000000000383
10
-131.1874999999996
20
-93.360000000000383
10
-131.1874999999996
20
-122.54000000000036
0
LWPOLYLINE
5
102
100
AcDbEntity
8
0
100
AcDbPolyline
90
4
70
1
43
0.0
10
-127.98749999999959
20
-180.90000000000035
10
-127.98749999999959
20
-151.72000000000037
10
-131.1874999999996
20
-151.72000000000037
10
-131.1874999999996
20
-180.90000000000035
0
LWPOLYLINE
5
103
100
AcDbEntity
8
0
100
AcDbPolyline
90
4
70
1
43
0.0
10
127.98749999999959
20
-151.72000000000037
10
127.98749999999959
20
-180.90000000000035
10
131.1874999999996
20
-180.90000000000035
10
131.1874999999996
20
-151.72000000000037
0
LWPOLYLINE
5
104
100
AcDbEntity
8
0
100
AcDbPolyline
90
4
70
1
43
0.0
10
127.98749999999959
20
-93.360000000000383
10
127.98749999999959
20
-122.54000000000036
10
131.1874999999996
20
-122.54000000000036
10
131.1874999999996
20
-93.360000000000383
0
LWPOLYLINE
5
105
100
AcDbEntity
8
0
100
AcDbPolyline
90
4
70
1
43
0.0
10
127.98749999999959
20
-35.000000000000426
10
127.98749999999959
20
-64.180000000000405
10
131.1874999999996
20
-64.180000000000405
10
131.1874999999996
20
-35.000000000000426
0
LWPOLYLINE
5
106
100
AcDbEntity
8
0
100
AcDbPolyline
90
4
70
1
43
0.0
10
-94.387499999999591
20
-64.180000000000405
10
-94.387499999999591
20
-35.000000000000426
10
-97.587499999999608
20
-35.000000000000426
10
-97.587499999999608
20
-64.180000000000405
0
LWPOLYLINE
5
107
100
AcDbEntity
8
0
100
AcDbPolyline
90
4
70
1
43
0.0
10
-94.387499999999591
20
-122.54000000000036
10
-94.387499999999591
20
-93.360000000000383
10
-97.587499999999608
20
-93.360000000000383
10
-97.587499999999608
20
-122.54000000000036
0
LWPOLYLINE
5
108
100
AcDbEntity
8
0
100
AcDbPolyline
90
4
70
1
43
0.0
10
-94.387499999999591
20
-180.90000000000035
10
-94.387499999999591
20
-151.72000000000037
10
-97.587499999999608
20
-151.72000000000037
10
-97.587499999999608
20
-180.90000000000035
0
LWPOLYLINE
5
109
100
AcDbEntity
8
0
100
AcDbPolyline
90
4
70
1
43
0.0
10
-39.537499999999604
20
-64.180000000000192
10
-39.537499999999604
20
-35.00000000000022
10
-42.737499999999606
20
-35.00000000000022
10
-42.737499999999606
20
-64.180000000000192
0
LWPOLYLINE
5
110
100
AcDbEntity
8
0
100
AcDbPolyline
90
4
70
1
43
0.0
10
-39.537499999999604
20
-122.54000000000016
10
-39.537499999999604
20
-93.360000000000156
10
-42.737499999999606
20
-93.360000000000156
10
-42.737499999999606
20
-122.54000000000016
0
LWPOLYLINE
5
111
100
AcDbEntity
8
0
100
AcDbPolyline
90
4
70
1
43
0.0
10
-39.537499999999604
20
-180.90000000000015
10
-39.537499999999604
20
-151.72000000000014
10
-42.737499999999606
20
-151.72000000000014
10
-42.737499999999606
20
-180.90000000000015
0
LWPOLYLINE
5
112
100
AcDbEntity
8
0
100
AcDbPolyline
90
4
70
1
43
0.0
10
39.537499999999604
20
-151.72000000000014
10
39.537499999999604
20
-180.90000000000015
10
42.737499999999606
20
-180.90000000000015
10
42.737499999999606
20
-151.72000000000014
0
LWPOLYLINE
5
113
100
AcDbEntity
8
0
100
AcDbPolyline
90
4
70
1
43
0.0
10
39.537499999999604
20
-93.360000000000156
10
39.537499999999604
20
-122.54000000000016
10
42.737499999999606
20
-122.54000000000016
10
42.737499999999606
20
-93.360000000000156
0
LWPOLYLINE
5
114
100
AcDbEntity
8
0
100
AcDbPolyline
90
4
70
1
43
0.0
10
39.537499999999604
20
-35.00000000000022
10
39.537499999999604
20
-64.180000000000192
10
42.737499999999606
20
-64.180000000000192
10
42.737499999999606
20
-35.00000000000022
0
LWPOLYLINE
5
115
100
AcDbEntity
8
0
100
AcDbPolyline
90
4
70
1
43
0.0
10
94.387499999999591
20
-151.72000000000037
10
94.387499999999591
20
-180.90000000000035
10
97.587499999999608
20
-180.90000000000035
10
97.587499999999608
20
-151.72000000000037
0
LWPOLYLINE
5
116
100
AcDbEntity
8
0
100
AcDbPolyline
90
4
70
1
43
0.0
10
94.387499999999591
20
-93.360000000000383
10
94.387499999999591
20
-122.54000000000036
10
97.587499999999608
20
-122.54000000000036
10
97.587499999999608
20
-93.360000000000383
0
LWPOLYLINE
5
117
100
AcDbEntity
8
0
100
AcDbPolyline
90
4
70
1
43
0.0
10
94.387499999999591
20
-35.000000000000426
10
94.387499999999591
20
-64.180000000000405
10
97.587499999999608
20
-64.180000000000405
10
97.587499999999608
20
-35.000000000000426
0
CIRCLE
5
118
100
AcDbEntity
8
0
100
AcDbCircle
10
-119.69999999999997
20
-195.90000000000001
30
0
40
10
210
0
220
0
230
1
0
CIRCLE
5
119
100
AcDbEntity
8
0
100
AcDbCircle
10
119.69999999999997
20
-19.999999999999964
30
0
40
10
210
0
220
0
230
1
0
CIRCLE
5
120
100
AcDbEntity
8
0
100
AcDbCircle
10
119.69999999999997
20
-195.90000000000001
30
0
40
10
210
0
220
0
230
1
0
CIRCLE
5
121
100
AcDbEntity
8
0
100
AcDbCircle
10
-119.69999999999997
20
-19.999999999999964
30
0
40
10
210
0
220
0
230
1
0
CIRCLE
5
122
100
AcDbEntity
8
0
100
AcDbCircle
10
109.7
20
-118.37142857142857
30
0
40
2.5999999999999979
210
0
220
-0
230
1
0
CIRCLE
5
123
100
AcDbEntity
8
0
100
AcDbCircle
10
109.7
20
-55.842857142857127
30
0
40
2.5999999999999979
210
0
220
-0
230
1
0
CIRCLE
5
124
100
AcDbEntity
8
0
100
AcDbCircle
10
-54.850000000000009
20
-160.05714285714282
30
0
40
2.5999999999999979
210
0
220
-0
230
1
0
CIRCLE
5
125
100
AcDbEntity
8
0
100
AcDbCircle
10
-54.850000000000009
20
-139.21428571428572
30
0
40
2.5999999999999979
210
0
220
-0
230
1
0
CIRCLE
5
126
100
AcDbEntity
8
0
100
AcDbCircle
10
-54.850000000000009
20
-180.90000000000001
30
0
40
2.5999999999999979
210
0
220
-0
230
1
0
CIRCLE
5
127
100
AcDbEntity
8
0
100
AcDbCircle
10
82.275000000000006
20
-139.21428571428572
30
0
40
2.5999999999999979
210
0
220
-0
230
1
0
CIRCLE
5
128
100
AcDbEntity
8
0
100
AcDbCircle
10
54.850000000000001
20
-180.90000000000001
30
0
40
2.5999999999999979
210
0
220
-0
230
1
0
CIRCLE
5
129
100
AcDbEntity
8
0
100
AcDbCircle
10
54.850000000000001
20
-160.05714285714282
30
0
40
2.5999999999999979
210
0
220
-0
230
1
0
CIRCLE
5
130
100
AcDbEntity
8
0
100
AcDbCircle
10
82.275000000000006
20
-160.05714285714282
30
0
40
2.5999999999999979
210
0
220
-0
230
1
0
CIRCLE
5
131
100
AcDbEntity
8
0
100
AcDbCircle
10
82.275000000000006
20
-180.90000000000001
30
0
40
2.5999999999999979
210
0
220
-0
230
1
0
CIRCLE
5
132
100
AcDbEntity
8
0
100
AcDbCircle
10
54.850000000000001
20
-139.21428571428572
30
0
40
2.5999999999999979
210
0
220
-0
230
1
0
CIRCLE
5
133
100
AcDbEntity
8
0
100
AcDbCircle
10
0
20
-160.05714285714282
30
0
40
2.6000000000000001
210
0
220
-0
230
1
0
CIRCLE
5
134
100
AcDbEntity
8
0
100
AcDbCircle
10
0
20
-180.90000000000001
30
0
40
2.6000000000000001
210
0
220
-0
230
1
0
CIRCLE
5
135
100
AcDbEntity
8
0
100
AcDbCircle
10
0
20
-139.21428571428572
30
0
40
2.6000000000000001
210
0
220
-0
230
1
0
CIRCLE
5
136
100
AcDbEntity
8
0
100
AcDbCircle
10
27.424999999999997
20
-180.90000000000001
30
0
40
2.5999999999999979
210
0
220
-0
230
1
0
CIRCLE
5
137
100
AcDbEntity
8
0
100
AcDbCircle
10
-27.424999999999997
20
-180.90000000000001
30
0
40
2.5999999999999979
210
0
220
-0
230
1
0
CIRCLE
5
138
100
AcDbEntity
8
0
100
AcDbCircle
10
54.850000000000001
20
-118.37142857142857
30
0
40
2.5999999999999979
210
0
220
-0
230
1
0
CIRCLE
5
139
100
AcDbEntity
8
0
100
AcDbCircle
10
27.424999999999997
20
-118.37142857142857
30
0
40
2.5999999999999979
210
0
220
-0
230
1
0
CIRCLE
5
140
100
AcDbEntity
8
0
100
AcDbCircle
10
0
20
-118.37142857142857
30
0
40
2.6000000000000001
210
0
220
-0
230
1
0
CIRCLE
5
141
100
AcDbEntity
8
0
100
AcDbCircle
10
-27.424999999999997
20
-118.37142857142857
30
0
40
2.5999999999999979
210
0
220
-0
230
1
0
CIRCLE
5
142
100
AcDbEntity
8
0
100
AcDbCircle
10
-54.850000000000009
20
-118.37142857142857
30
0
40
2.5999999999999979
210
0
220
-0
230
1
0
CIRCLE
5
143
100
AcDbEntity
8
0
100
AcDbCircle
10
-82.275000000000006
20
-118.37142857142857
30
0
40
2.5999999999999979
210
0
220
-0
230
1
0
CIRCLE
5
144
100
AcDbEntity
8
0
100
AcDbCircle
10
-109.7
20
-118.37142857142857
30
0
40
2.5999999999999979
210
0
220
-0
230
1
0
CIRCLE
5
145
100
AcDbEntity
8
0
100
AcDbCircle
10
82.275000000000006
20
-97.528571428571411
30
0
40
2.5999999999999979
210
0
220
-0
230
1
0
CIRCLE
5
146
100
AcDbEntity
8
0
100
AcDbCircle
10
54.850000000000001
20
-97.528571428571411
30
0
40
2.5999999999999979
210
0
220
-0
230
1
0
CIRCLE
5
147
100
AcDbEntity
8
0
100
AcDbCircle
10
27.424999999999997
20
-97.528571428571411
30
0
40
2.5999999999999979
210
0
220
-0
230
1
0
CIRCLE
5
148
100
AcDbEntity
8
0
100
AcDbCircle
10
0
20
-97.528571428571411
30
0
40
2.6000000000000001
210
0
220
-0
230
1
0
CIRCLE
5
149
100
AcDbEntity
8
0
100
AcDbCircle
10
-27.424999999999997
20
-97.528571428571411
30
0
40
2.5999999999999979
210
0
220
-0
230
1
0
CIRCLE
5
150
100
AcDbEntity
8
0
100
AcDbCircle
10
-54.850000000000009
20
-97.528571428571411
30
0
40
2.5999999999999979
210
0
220
-0
230
1
0
CIRCLE
5
151
100
AcDbEntity
8
0
100
AcDbCircle
10
-82.275000000000006
20
-97.528571428571411
30
0
40
2.5999999999999979
210
0
220
-0
230
1
0
CIRCLE
5
152
100
AcDbEntity
8
0
100
AcDbCircle
10
-109.7
20
-97.528571428571411
30
0
40
2.5999999999999979
210
0
220
-0
230
1
0
CIRCLE
5
153
100
AcDbEntity
8
0
100
AcDbCircle
10
109.7
20
-76.685714285714269
30
0
40
2.5999999999999979
210
0
220
-0
230
1
0
CIRCLE
5
154
100
AcDbEntity
8
0
100
AcDbCircle
10
82.275000000000006
20
-76.685714285714269
30
0
40
2.5999999999999979
210
0
220
-0
230
1
0
CIRCLE
5
155
100
AcDbEntity
8
0
100
AcDbCircle
10
54.850000000000001
20
-76.685714285714269
30
0
40
2.5999999999999979
210
0
220
-0
230
1
0
CIRCLE
5
156
100
AcDbEntity
8
0
100
AcDbCircle
10
27.424999999999997
20
-76.685714285714269
30
0
40
2.5999999999999979
210
0
220
-0
230
1
0
CIRCLE
5
157
100
AcDbEntity
8
0
100
AcDbCircle
10
0
20
-76.685714285714269
30
0
40
2.6000000000000001
210
0
220
-0
230
1
0
CIRCLE
5
158
100
AcDbEntity
8
0
100
AcDbCircle
10
-27.424999999999997
20
-76.685714285714269
30
0
40
2.5999999999999979
210
0
220
-0
230
1
0
CIRCLE
5
159
100
AcDbEntity
8
0
100
AcDbCircle
10
-54.850000000000009
20
-76.685714285714269
30
0
40
2.5999999999999979
210
0
220
-0
230
1
0
CIRCLE
5
160
100
AcDbEntity
8
0
100
AcDbCircle
10
-82.275000000000006
20
-76.685714285714269
30
0
40
2.5999999999999979
210
0
220
-0
230
1
0
CIRCLE
5
161
100
AcDbEntity
8
0
100
AcDbCircle
10
-109.7
20
-76.685714285714269
30
0
40
2.5999999999999979
210
0
220
-0
230
1
0
CIRCLE
5
162
100
AcDbEntity
8
0
100
AcDbCircle
10
82.275000000000006
20
-55.842857142857127
30
0
40
2.5999999999999979
210
0
220
-0
230
1
0
CIRCLE
5
163
100
AcDbEntity
8
0
100
AcDbCircle
10
54.850000000000001
20
-55.842857142857127
30
0
40
2.5999999999999979
210
0
220
-0
230
1
0
CIRCLE
5
164
100
AcDbEntity
8
0
100
AcDbCircle
10
27.424999999999997
20
-55.842857142857127
30
0
40
2.5999999999999979
210
0
220
-0
230
1
0
CIRCLE
5
165
100
AcDbEntity
8
0
100
AcDbCircle
10
0
20
-55.842857142857127
30
0
40
2.6000000000000001
210
0
220
-0
230
1
0
CIRCLE
5
166
100
AcDbEntity
8
0
100
AcDbCircle
10
-27.424999999999997
20
-55.842857142857127
30
0
40
2.5999999999999979
210
0
220
-0
230
1
0
CIRCLE
5
167
100
AcDbEntity
8
0
100
AcDbCircle
10
-54.850000000000009
20
-55.842857142857127
30
0
40
2.5999999999999979
210
0
220
-0
230
1
0
CIRCLE
5
168
100
AcDbEntity
8
0
100
AcDbCircle
10
-82.275000000000006
20
-55.842857142857127
30
0
40
2.5999999999999979
210
0
220
-0
230
1
0
CIRCLE
5
169
100
AcDbEntity
8
0
100
AcDbCircle
10
-109.7
20
-55.842857142857127
30
0
40
2.5999999999999979
210
0
220
-0
230
1
0
CIRCLE
5
170
100
AcDbEntity
8
0
100
AcDbCircle
10
109.7
20
-34.999999999999986
30
0
40
2.5999999999999979
210
0
220
-0
230
1
0
CIRCLE
5
171
100
AcDbEntity
8
0
100
AcDbCircle
10
82.275000000000006
20
-34.999999999999986
30
0
40
2.5999999999999979
210
0
220
-0
230
1
0
CIRCLE
5
172
100
AcDbEntity
8
0
100
AcDbCircle
10
54.850000000000001
20
-34.999999999999986
30
0
40
2.5999999999999979
210
0
220
-0
230
1
0
CIRCLE
5
173
100
AcDbEntity
8
0
100
AcDbCircle
10
27.424999999999997
20
-34.999999999999986
30
0
40
2.5999999999999979
210
0
220
-0
230
1
0
CIRCLE
5
174
100
AcDbEntity
8
0
100
AcDbCircle
10
0
20
-34.999999999999986
30
0
40
2.6000000000000001
210
0
220
-0
230
1
0
CIRCLE
5
175
100
AcDbEntity
8
0
100
AcDbCircle
10
-27.424999999999997
20
-34.999999999999986
30
0
40
2.5999999999999979
210
0
220
-0
230
1
0
CIRCLE
5
176
100
AcDbEntity
8
0
100
AcDbCircle
10
-54.850000000000009
20
-34.999999999999986
30
0
40
2.5999999999999979
210
0
220
-0
230
1
0
CIRCLE
5
177
100
AcDbEntity
8
0
100
AcDbCircle
10
-82.275000000000006
20
-34.999999999999986
30
0
40
2.5999999999999979
210
0
220
-0
230
1
0
CIRCLE
5
178
100
AcDbEntity
8
0
100
AcDbCircle
10
-109.7
20
-34.999999999999986
30
0
40
2.5999999999999979
210
0
220
-0
230
1
0
CIRCLE
5
179
100
AcDbEntity
8
0
100
AcDbCircle
10
-109.7
20
-180.90000000000001
30
0
40
2.5999999999999979
210
0
220
-0
230
1
0
CIRCLE
5
180
100
AcDbEntity
8
0
100
AcDbCircle
10
109.7
20
-180.90000000000001
30
0
40
2.5999999999999979
210
0
220
-0
230
1
0
CIRCLE
5
181
100
AcDbEntity
8
0
100
AcDbCircle
10
-27.424999999999997
20
-139.21428571428572
30
0
40
2.5999999999999979
210
0
220
-0
230
1
0
CIRCLE
5
182
100
AcDbEntity
8
0
100
AcDbCircle
10
27.424999999999997
20
-139.21428571428572
30
0
40
2.5999999999999979
210
0
220
-0
230
1
0
CIRCLE
5
183
100
AcDbEntity
8
0
100
AcDbCircle
10
82.275000000000006
20
-118.37142857142857
30
0
40
2.5999999999999979
210
0
220
-0
230
1
0
CIRCLE
5
184
100
AcDbEntity
8
0
100
AcDbCircle
10
27.424999999999997
20
-160.05714285714282
30
0
40
2.5999999999999979
210
0
220
-0
230
1
0
CIRCLE
5
185
100
AcDbEntity
8
0
100
AcDbCircle
10
-109.7
20
-160.05714285714282
30
0
40
2.5999999999999979
210
0
220
-0
230
1
0
CIRCLE
5
186
100
AcDbEntity
8
0
100
AcDbCircle
10
109.7
20
-139.21428571428572
30
0
40
2.5999999999999979
210
0
220
-0
230
1
0
CIRCLE
5
187
100
AcDbEntity
8
0
100
AcDbCircle
10
-109.7
20
-139.21428571428572
30
0
40
2.5999999999999979
210
0
220
-0
230
1
0
CIRCLE
5
188
100
AcDbEntity
8
0
100
AcDbCircle
10
-27.424999999999997
20
-160.05714285714282
30
0
40
2.5999999999999979
210
0
220
-0
230
1
0
CIRCLE
5
189
100
AcDbEntity
8
0
100
AcDbCircle
10
-82.275000000000006
20
-160.05714285714282
30
0
40
2.5999999999999979
210
0
220
-0
230
1
0
CIRCLE
5
190
100
AcDbEntity
8
0
100
AcDbCircle
10
-82.275000000000006
20
-180.90000000000001
30
0
40
2.5999999999999979
210
0
220
-0
230
1
0
CIRCLE
5
191
100
AcDbEntity
8
0
100
AcDbCircle
10
-82.275000000000006
20
-139.21428571428572
30
0
40
2.5999999999999979
210
0
220
-0
230
1
0
CIRCLE
5
192
100
AcDbEntity
8
0
100
AcDbCircle
10
109.7
20
-97.528571428571411
30
0
40
2.5999999999999979
210
0
220
-0
230
1
0
CIRCLE
5
193
100
AcDbEntity
8
0
100
AcDbCircle
10
109.7
20
-160.05714285714282
30
0
40
2.5999999999999979
210
0
220
-0
230
1
0
LWPOLYLINE
5
194
100
AcDbEntity
8
0
100
AcDbPolyline
90
56
70
1
43
0.0
10
139.69999999999999
20
-165.89999999999944
10
136.5
20
-165.89999999999944
10
136.49999999999997
20
-185.90000000000003
42
-0.41421356237309465
10
109.7
20
-212.69999999999996
10
89.700000000000017
20
-212.69999999999996
10
89.700000000000017
20
-215.89999999999998
10
53.820000000000114
20
-215.89999999999998
10
53.820000000000114
20
-212.69999999999996
10
17.940000000000317
20
-212.69999999999996
10
17.940000000000317
20
-215.89999999999998
10
-17.939999999999511
20
-215.89999999999998
10
-17.939999999999511
20
-212.69999999999996
10
-53.820000000000228
20
-212.69999999999996
10
-53.820000000000228
20
-215.89999999999992
10
-89.700000000000045
20
-215.89999999999992
10
-89.700000000000045
20
-212.69999999999993
10
-109.69999999999997
20
-212.69999999999996
42
-0.41421356237309542
10
-136.49999999999997
20
-185.90000000000001
10
-136.5
20
-165.89999999999952
10
-139.69999999999999
20
-165.89999999999952
10
-139.69999999999999
20
-142.71999999999952
10
-136.5
20
-142.71999999999952
10
-136.5
20
-119.53999999999951
10
-139.69999999999999
20
-119.53999999999951
10
-139.69999999999999
20
-96.359999999999502
10
-136.5
20
-96.359999999999502
10
-136.5
20
-73.179999999999495
10
-139.69999999999999
20
-73.179999999999495
10
-139.69999999999999
20
-49.999999999999496
10
-136.5
20
-49.999999999999496
10
-136.50000000000003
20
-30
42
-0.4142135623730952
10
-109.7
20
-3.2000000000000028
10
-89.700000000000017
20
-3.2000000000000117
10
-89.700000000000017
20
-1.1102230246251565e-14
10
-53.820000000000206
20
-1.1102230246251565e-14
10
-53.820000000000206
20
-3.2000000000000117
10
-17.939999999999493
20
-3.2000000000000117
10
-17.939999999999493
20
-1.1102230246251565e-14
10
17.940000000000332
20
-1.1102230246251565e-14
10
17.940000000000332
20
-3.2000000000000117
10
53.820000000000128
20
-3.2000000000000117
10
53.820000000000128
20
-1.1102230246251565e-14
10
89.700000000000045
20
-1.1102230246251565e-14
10
89.700000000000045
20
-3.2000000000000117
10
109.70000000000005
20
-3.2000000000000206
42
-0.41421356237309442
10
136.49999999999997
20
-30
10
136.49999999999991
20
-49.999999999999396
10
139.69999999999993
20
-49.999999999999396
10
139.69999999999993
20
-73.179999999999396
10
136.49999999999994
20
-73.179999999999396
10
136.49999999999994
20
-96.359999999999403
10
139.69999999999996
20
-96.359999999999403
10
139.69999999999996
20
-119.53999999999942
10
136.49999999999997
20
-119.53999999999942
10
136.49999999999997
20
-142.71999999999943
10
139.69999999999996
20
-142.71999999999943
0
ENDSEC
0
SECTION
2
OBJECTS
0
DICTIONARY
5
C
100
AcDbDictionary
3
ACAD_GROUP
350
D
3
ACAD_MLINESTYLE
350
17
0
DICTIONARY
5
D
100
AcDbDictionary
0
DICTIONARY
5
1A
330
C
100
AcDbDictionary
0
DICTIONARY
5
17
100
AcDbDictionary
0
ENDSEC
0
EOF
