0
SECTION
2
HEADER
9
$INSUNITS
70
4
9
$ACADVER
1
AC1014
9
$HANDSEED
5
FFFF
0
ENDSEC
0
SECTION
2
TABLES
0
TABLE
2
VPORT
5
8
100
AcDbSymbolTable
0
ENDTAB
0
TABLE
2
LTYPE
5
5
100
AcDbSymbolTable
0
LTYPE
5
14
100
AcDbSymbolTableRecord
100
AcDbLinetypeTableRecord
2
BYBLOCK
70
0
0
LTYPE
5
15
100
AcDbSymbolTableRecord
100
AcDbLinetypeTableRecord
2
BYLAYER
70
0
0
ENDTAB
0
TABLE
2
LAYER
5
2
100
AcDbSymbolTable
70
2
0
LAYER
5
50
100
AcDbSymbolTableRecord
100
AcDbLayerTableRecord
2
0
70
0
6
CONTINUOUS
0
ENDTAB
0
TABLE
2
STYLE
5
3
100
AcDbSymbolTable
70
1
0
STYLE
5
11
100
AcDbSymbolTableRecord
100
AcDbTextStyleTableRecord
2
STANDARD
70
0
0
ENDTAB
0
TABLE
2
VIEW
5
6
100
AcDbSymbolTable
70
0
0
ENDTAB
0
TABLE
2
UCS
5
7
100
AcDbSymbolTable
70
0
0
ENDTAB
0
TABLE
2
APPID
5
9
100
AcDbSymbolTable
70
2
0
APPID
5
12
100
AcDbSymbolTableRecord
100
AcDbRegAppTableRecord
2
ACAD
70
0
0
ENDTAB
0
TABLE
2
DIMSTYLE
5
A
100
AcDbSymbolTable
70
1
0
ENDTAB
0
TABLE
2
BLOCK_RECORD
5
1
100
AcDbSymbolTable
70
1
0
BLOCK_RECORD
5
1F
100
AcDbSymbolTableRecord
100
AcDbBlockTableRecord
2
*MODEL_SPACE
0
BLOCK_RECORD
5
1B
100
AcDbSymbolTableRecord
100
AcDbBlockTableRecord
2
*PAPER_SPACE
0
ENDTAB
0
ENDSEC
0
SECTION
2
BLOCKS
0
BLOCK
5
20
100
AcDbEntity
100
AcDbBlockBegin
2
*MODEL_SPACE
0
ENDBLK
5
21
100
AcDbEntity
100
AcDbBlockEnd
0
BLOCK
5
1C
100
AcDbEntity
100
AcDbBlockBegin
2
*PAPER_SPACE
0
ENDBLK
5
1D
100
AcDbEntity
100
AcDbBlockEnd
0
ENDSEC
0
SECTION
2
ENTITIES
0
CIRCLE
5
100
100
AcDbEntity
8
0
100
AcDbCircle
10
-35.88000000000023
20
-25.449999999999999
30
9.8607613152626476e-31
40
3.7000000000000006
210
0
220
-0
230
1
0
CIRCLE
5
101
100
AcDbEntity
8
0
100
AcDbCircle
10
35.879999999999654
20
-25.45000000000072
30
9.8607613152626476e-31
40
3.7000000000000006
210
0
220
-0
230
1
0
LWPOLYLINE
5
102
100
AcDbEntity
8
0
100
AcDbPolyline
90
4
70
1
43
0.0
10
17.939999999999493
20
-17.699999999999999
10
17.939999999999493
20
-14.5
10
-17.940000000000332
20
-14.5
10
-17.940000000000332
20
-17.699999999999999
0
LWPOLYLINE
5
103
100
AcDbEntity
8
0
100
AcDbPolyline
90
4
70
1
43
0.0
10
89.700000000000017
20
-14.5
10
53.820000000000206
20
-14.5
10
53.820000000000206
20
-17.699999999999999
10
89.700000000000017
20
-17.699999999999999
0
LWPOLYLINE
5
104
100
AcDbEntity
8
0
100
AcDbPolyline
90
4
70
1
43
0.0
10
-53.820000000000128
20
-17.699999999999999
10
-53.820000000000128
20
-14.5
10
-89.700000000000045
20
-14.5
10
-89.700000000000045
20
-17.699999999999999
0
LWPOLYLINE
5
105
100
AcDbEntity
8
0
100
AcDbPolyline
90
28
70
1
43
0.0
10
53.820000000000206
20
-36.400000000000006
10
53.820000000000206
20
-33.200000000000003
10
17.93999999999949
20
-33.200000000000003
10
17.939999999999486
20
-36.400000000000006
10
-17.940000000000335
20
-36.400000000000006
10
-17.940000000000332
20
-33.200000000000003
10
-53.820000000000149
20
-33.200000000000003
10
-53.820000000000149
20
-36.400000000000006
10
-89.700000000000045
20
-36.400000000000006
10
-89.700000000000045
20
-33.200000000000003
10
-109.70000000000005
20
-33.200000000000003
10
-109.70000000000005
20
-3.2000000000000006
10
-89.700000000000045
20
-3.2000000000000028
10
-89.700000000000045
20
0
10
-53.820000000000149
20
0
10
-53.820000000000149
20
-3.2000000000000028
10
-17.940000000000335
20
-3.2000000000000028
10
-17.940000000000332
20
0
10
17.93999999999949
20
0
10
17.93999999999949
20
-3.2000000000000028
10
53.820000000000206
20
-3.2000000000000028
10
53.820000000000206
20
0
10
89.700000000000003
20
0
10
89.700000000000003
20
-3.2000000000000028
10
109.7
20
-3.2000000000000028
10
109.7
20
-33.200000000000003
10
89.700000000000003
20
-33.200000000000003
10
89.700000000000003
20
-36.400000000000006
0
ENDSEC
0
SECTION
2
OBJECTS
0
DICTIONARY
5
C
100
AcDbDictionary
3
ACAD_GROUP
350
D
3
ACAD_MLINESTYLE
350
17
0
DICTIONARY
5
D
100
AcDbDictionary
0
DICTIONARY
5
1A
330
C
100
AcDbDictionary
0
DICTIONARY
5
17
100
AcDbDictionary
0
ENDSEC
0
EOF
