0
SECTION
2
HEADER
9
$INSUNITS
70
4
9
$ACADVER
1
AC1014
9
$HANDSEED
5
FFFF
0
ENDSEC
0
SECTION
2
TABLES
0
TABLE
2
VPORT
5
8
100
AcDbSymbolTable
0
ENDTAB
0
TABLE
2
LTYPE
5
5
100
AcDbSymbolTable
0
LTYPE
5
14
100
AcDbSymbolTableRecord
100
AcDbLinetypeTableRecord
2
BYBLOCK
70
0
0
LTYPE
5
15
100
AcDbSymbolTableRecord
100
AcDbLinetypeTableRecord
2
BYLAYER
70
0
0
ENDTAB
0
TABLE
2
LAYER
5
2
100
AcDbSymbolTable
70
2
0
LAYER
5
50
100
AcDbSymbolTableRecord
100
AcDbLayerTableRecord
2
0
70
0
6
CONTINUOUS
0
ENDTAB
0
TABLE
2
STYLE
5
3
100
AcDbSymbolTable
70
1
0
STYLE
5
11
100
AcDbSymbolTableRecord
100
AcDbTextStyleTableRecord
2
STANDARD
70
0
0
ENDTAB
0
TABLE
2
VIEW
5
6
100
AcDbSymbolTable
70
0
0
ENDTAB
0
TABLE
2
UCS
5
7
100
AcDbSymbolTable
70
0
0
ENDTAB
0
TABLE
2
APPID
5
9
100
AcDbSymbolTable
70
2
0
APPID
5
12
100
AcDbSymbolTableRecord
100
AcDbRegAppTableRecord
2
ACAD
70
0
0
ENDTAB
0
TABLE
2
DIMSTYLE
5
A
100
AcDbSymbolTable
70
1
0
ENDTAB
0
TABLE
2
BLOCK_RECORD
5
1
100
AcDbSymbolTable
70
1
0
BLOCK_RECORD
5
1F
100
AcDbSymbolTableRecord
100
AcDbBlockTableRecord
2
*MODEL_SPACE
0
BLOCK_RECORD
5
1B
100
AcDbSymbolTableRecord
100
AcDbBlockTableRecord
2
*PAPER_SPACE
0
ENDTAB
0
ENDSEC
0
SECTION
2
BLOCKS
0
BLOCK
5
20
100
AcDbEntity
100
AcDbBlockBegin
2
*MODEL_SPACE
0
ENDBLK
5
21
100
AcDbEntity
100
AcDbBlockEnd
0
BLOCK
5
1C
100
AcDbEntity
100
AcDbBlockBegin
2
*PAPER_SPACE
0
ENDBLK
5
1D
100
AcDbEntity
100
AcDbBlockEnd
0
ENDSEC
0
SECTION
2
ENTITIES
0
CIRCLE
5
100
100
AcDbEntity
8
0
100
AcDbCircle
10
167.05714285714299
20
-21.699999999999999
30
0
40
0.59999999999999609
210
0
220
-0
230
1
0
CIRCLE
5
101
100
AcDbEntity
8
0
100
AcDbCircle
10
69.685714285714411
20
-21.699999999999999
30
0
40
0.60000000000000053
210
0
220
-0
230
1
0
CIRCLE
5
102
100
AcDbEntity
8
0
100
AcDbCircle
10
90.528571428571567
20
-21.699999999999999
30
0
40
0.60000000000000053
210
0
220
-0
230
1
0
CIRCLE
5
103
100
AcDbEntity
8
0
100
AcDbCircle
10
42.000000000000128
20
-21.699999999999999
30
0
40
0.59999999999999609
210
0
220
-0
230
1
0
CIRCLE
5
104
100
AcDbEntity
8
0
100
AcDbCircle
10
153.05714285714299
20
-21.699999999999999
30
0
40
0.59999999999999609
210
0
220
-0
230
1
0
CIRCLE
5
105
100
AcDbEntity
8
0
100
AcDbCircle
10
125.37142857142871
20
-21.699999999999999
30
0
40
0.60000000000000053
210
0
220
-0
230
1
0
CIRCLE
5
106
100
AcDbEntity
8
0
100
AcDbCircle
10
83.685714285714425
20
-21.699999999999999
30
0
40
0.60000000000000053
210
0
220
-0
230
1
0
CIRCLE
5
107
100
AcDbEntity
8
0
100
AcDbCircle
10
104.52857142857155
20
-21.699999999999999
30
0
40
0.59999999999999998
210
0
220
-0
230
1
0
CIRCLE
5
108
100
AcDbEntity
8
0
100
AcDbCircle
10
111.37142857142869
20
-21.699999999999999
30
0
40
0.59999999999999998
210
0
220
-0
230
1
0
CIRCLE
5
109
100
AcDbEntity
8
0
100
AcDbCircle
10
146.21428571428584
20
-21.699999999999999
30
0
40
0.60000000000000053
210
0
220
-0
230
1
0
CIRCLE
5
110
100
AcDbEntity
8
0
100
AcDbCircle
10
62.84285714285727
20
-21.699999999999999
30
0
40
0.59999999999999609
210
0
220
-0
230
1
0
CIRCLE
5
111
100
AcDbEntity
8
0
100
AcDbCircle
10
48.84285714285727
20
-21.699999999999999
30
0
40
0.59999999999999609
210
0
220
-0
230
1
0
CIRCLE
5
112
100
AcDbEntity
8
0
100
AcDbCircle
10
187.90000000000015
20
-21.699999999999999
30
0
40
0.60000000000000497
210
0
220
-0
230
1
0
CIRCLE
5
113
100
AcDbEntity
8
0
100
AcDbCircle
10
132.21428571428586
20
-21.699999999999999
30
0
40
0.60000000000000053
210
0
220
-0
230
1
0
CIRCLE
5
114
100
AcDbEntity
8
0
100
AcDbCircle
10
173.90000000000015
20
-21.699999999999999
30
0
40
0.59999999999999609
210
0
220
-0
230
1
0
CIRCLE
5
115
100
AcDbEntity
8
0
100
AcDbCircle
10
28.000000000000121
20
-21.699999999999999
30
0
40
0.59999999999999609
210
0
220
-0
230
1
0
LWPOLYLINE
5
116
100
AcDbEntity
8
0
100
AcDbPolyline
90
40
70
1
43
0.0
10
162.36654393390148
20
-25.699999999999985
10
160.05714285714299
20
-21.699999999999999
10
157.7477417803845
20
-25.699999999999985
10
141.5236867910443
20
-25.699999999999985
10
139.21428571428584
20
-21.699999999999999
10
136.90488463752735
20
-25.699999999999985
10
120.68082964818717
20
-25.699999999999985
10
118.37142857142868
20
-21.699999999999999
10
116.06202749467019
20
-25.699999999999985
10
99.837972505330015
20
-25.699999999999985
10
97.528571428571553
20
-21.699999999999999
10
95.219170351813062
20
-25.699999999999985
10
78.995115362472902
20
-25.699999999999985
10
76.685714285714411
20
-21.699999999999999
10
74.376313208955921
20
-25.699999999999985
10
58.152258219615732
20
-25.699999999999985
10
55.842857142857277
20
-21.699999999999999
10
53.533456066098786
20
-25.699999999999985
10
37.309401076758604
20
-25.699999999999985
10
35.000000000000114
20
-21.699999999999999
10
32.690598923241623
20
-25.699999999999985
10
25.000000000000149
20
-25.699999999999985
10
25.000000000000149
20
-17.699999999999999
10
35.00000000000022
20
-17.699999999999999
10
35.00000000000022
20
-14.500000000000011
10
64.180000000000192
20
-14.500000000000025
10
64.180000000000149
20
-17.699999999999999
10
93.360000000000156
20
-17.699999999999999
10
93.360000000000156
20
-14.500000000000011
10
122.54000000000016
20
-14.500000000000011
10
122.54000000000019
20
-17.699999999999999
10
151.7200000000002
20
-17.699999999999999
10
151.72000000000014
20
-14.5
10
180.90000000000015
20
-14.5
10
180.9000000000002
20
-17.699999999999999
10
190.90000000000009
20
-17.699999999999999
10
190.90000000000018
20
-25.700000000000003
10
183.20940107675858
20
-25.699999999999985
10
180.90000000000015
20
-21.699999999999999
10
178.59059892324166
20
-25.699999999999985
0
ENDSEC
0
SECTION
2
OBJECTS
0
DICTIONARY
5
C
100
AcDbDictionary
3
ACAD_GROUP
350
D
3
ACAD_MLINESTYLE
350
17
0
DICTIONARY
5
D
100
AcDbDictionary
0
DICTIONARY
5
1A
330
C
100
AcDbDictionary
0
DICTIONARY
5
17
100
AcDbDictionary
0
ENDSEC
0
EOF
