0
SECTION
2
HEADER
9
$INSUNITS
70
4
9
$ACADVER
1
AC1014
9
$HANDSEED
5
FFFF
0
ENDSEC
0
SECTION
2
TABLES
0
TABLE
2
VPORT
5
8
100
AcDbSymbolTable
0
ENDTAB
0
TABLE
2
LTYPE
5
5
100
AcDbSymbolTable
0
LTYPE
5
14
100
AcDbSymbolTableRecord
100
AcDbLinetypeTableRecord
2
BYBLOCK
70
0
0
LTYPE
5
15
100
AcDbSymbolTableRecord
100
AcDbLinetypeTableRecord
2
BYLAYER
70
0
0
ENDTAB
0
TABLE
2
LAYER
5
2
100
AcDbSymbolTable
70
2
0
LAYER
5
50
100
AcDbSymbolTableRecord
100
AcDbLayerTableRecord
2
0
70
0
6
CONTINUOUS
0
ENDTAB
0
TABLE
2
STYLE
5
3
100
AcDbSymbolTable
70
1
0
STYLE
5
11
100
AcDbSymbolTableRecord
100
AcDbTextStyleTableRecord
2
STANDARD
70
0
0
ENDTAB
0
TABLE
2
VIEW
5
6
100
AcDbSymbolTable
70
0
0
ENDTAB
0
TABLE
2
UCS
5
7
100
AcDbSymbolTable
70
0
0
ENDTAB
0
TABLE
2
APPID
5
9
100
AcDbSymbolTable
70
2
0
APPID
5
12
100
AcDbSymbolTableRecord
100
AcDbRegAppTableRecord
2
ACAD
70
0
0
ENDTAB
0
TABLE
2
DIMSTYLE
5
A
100
AcDbSymbolTable
70
1
0
ENDTAB
0
TABLE
2
BLOCK_RECORD
5
1
100
AcDbSymbolTable
70
1
0
BLOCK_RECORD
5
1F
100
AcDbSymbolTableRecord
100
AcDbBlockTableRecord
2
*MODEL_SPACE
0
BLOCK_RECORD
5
1B
100
AcDbSymbolTableRecord
100
AcDbBlockTableRecord
2
*PAPER_SPACE
0
ENDTAB
0
ENDSEC
0
SECTION
2
BLOCKS
0
BLOCK
5
20
100
AcDbEntity
100
AcDbBlockBegin
2
*MODEL_SPACE
0
ENDBLK
5
21
100
AcDbEntity
100
AcDbBlockEnd
0
BLOCK
5
1C
100
AcDbEntity
100
AcDbBlockBegin
2
*PAPER_SPACE
0
ENDBLK
5
1D
100
AcDbEntity
100
AcDbBlockEnd
0
ENDSEC
0
SECTION
2
ENTITIES
0
LINE
5
100
100
AcDbEntity
8
0
100
AcDbLine
10
119.53999999999948
20
-3.2000000000000028
30
0
11
119.53999999999948
21
0
31
0
0
LINE
5
101
100
AcDbEntity
8
0
100
AcDbLine
10
119.53999999999948
20
0
30
0
11
96.359999999999459
21
0
31
-3.944304526105059e-30
0
LINE
5
102
100
AcDbEntity
8
0
100
AcDbLine
10
96.359999999999459
20
0
30
-3.944304526105059e-30
11
96.359999999999459
21
-3.2000000000000028
31
0
0
LINE
5
103
100
AcDbEntity
8
0
100
AcDbLine
10
96.359999999999459
20
-3.2000000000000028
30
0
11
73.179999999999453
21
-3.2000000000000028
31
-2.9582283945787943e-30
0
LINE
5
104
100
AcDbEntity
8
0
100
AcDbLine
10
73.179999999999453
20
-3.2000000000000028
30
-2.9582283945787943e-30
11
73.179999999999453
21
0
31
0
0
LINE
5
105
100
AcDbEntity
8
0
100
AcDbLine
10
73.179999999999453
20
0
30
0
11
49.999999999999446
21
0
31
-2.9582283945787943e-30
0
LINE
5
106
100
AcDbEntity
8
0
100
AcDbLine
10
49.999999999999446
20
0
30
-2.9582283945787943e-30
11
49.999999999999446
21
-3.2000000000000028
31
0
0
LINE
5
107
100
AcDbEntity
8
0
100
AcDbLine
10
49.999999999999446
20
-3.2000000000000028
30
0
11
29.999999999999982
21
-3.2000000000000006
31
3.5005702669182399e-29
0
LINE
5
108
100
AcDbEntity
8
0
100
AcDbLine
10
29.999999999999982
20
-33.200000000000003
30
-2.3062076425609865e-46
11
49.999999999999446
21
-33.200000000000003
31
-3.5005702669182399e-29
0
LINE
5
109
100
AcDbEntity
8
0
100
AcDbLine
10
49.999999999999446
20
-33.200000000000003
30
-3.5005702669182399e-29
11
49.999999999999446
21
-36.400000000000006
31
0
0
LINE
5
110
100
AcDbEntity
8
0
100
AcDbLine
10
49.999999999999446
20
-36.400000000000006
30
0
11
73.179999999999453
21
-36.400000000000006
31
2.9582283945787943e-30
0
LINE
5
111
100
AcDbEntity
8
0
100
AcDbLine
10
73.179999999999453
20
-36.400000000000006
30
2.9582283945787943e-30
11
73.179999999999453
21
-33.200000000000003
31
0
0
LINE
5
112
100
AcDbEntity
8
0
100
AcDbLine
10
73.179999999999453
20
-33.200000000000003
30
0
11
96.359999999999459
21
-33.200000000000003
31
2.9582283945787943e-30
0
LINE
5
113
100
AcDbEntity
8
0
100
AcDbLine
10
96.359999999999459
20
-33.200000000000003
30
2.9582283945787943e-30
11
96.359999999999459
21
-36.400000000000006
31
0
0
LINE
5
114
100
AcDbEntity
8
0
100
AcDbLine
10
96.359999999999459
20
-36.400000000000006
30
0
11
119.53999999999948
21
-36.400000000000006
31
3.944304526105059e-30
0
LINE
5
115
100
AcDbEntity
8
0
100
AcDbLine
10
119.53999999999948
20
-36.400000000000006
30
3.944304526105059e-30
11
119.53999999999948
21
-33.200000000000003
31
0
0
LINE
5
116
100
AcDbEntity
8
0
100
AcDbLine
10
119.53999999999948
20
-33.200000000000003
30
0
11
142.71999999999946
21
-33.200000000000003
31
1.9721522630525295e-30
0
LINE
5
117
100
AcDbEntity
8
0
100
AcDbLine
10
142.71999999999946
20
-33.200000000000003
30
1.9721522630525295e-30
11
142.71999999999946
21
-36.400000000000006
31
0
0
LINE
5
118
100
AcDbEntity
8
0
100
AcDbLine
10
142.71999999999946
20
-36.400000000000006
30
0
11
165.89999999999947
21
-36.400000000000006
31
3.944304526105059e-30
0
LINE
5
119
100
AcDbEntity
8
0
100
AcDbLine
10
165.89999999999947
20
-36.400000000000006
30
3.944304526105059e-30
11
165.89999999999949
21
-33.200000000000003
31
0
0
LINE
5
120
100
AcDbEntity
8
0
100
AcDbLine
10
165.89999999999949
20
-33.200000000000003
30
0
11
185.90000000000001
21
-33.200000000000003
31
-1.2325951644078309e-29
0
LINE
5
121
100
AcDbEntity
8
0
100
AcDbLine
10
185.90000000000001
20
-3.2000000000000028
30
0
11
165.89999999999949
21
-3.2000000000000028
31
1.2325951644078309e-29
0
LINE
5
122
100
AcDbEntity
8
0
100
AcDbLine
10
165.89999999999949
20
-3.2000000000000028
30
1.2325951644078309e-29
11
165.89999999999949
21
0
31
0
0
LINE
5
123
100
AcDbEntity
8
0
100
AcDbLine
10
165.89999999999949
20
0
30
0
11
142.71999999999949
21
0
31
-3.944304526105059e-30
0
LINE
5
124
100
AcDbEntity
8
0
100
AcDbLine
10
142.71999999999949
20
0
30
-3.944304526105059e-30
11
142.71999999999946
21
-3.2000000000000028
31
0
0
LINE
5
125
100
AcDbEntity
8
0
100
AcDbLine
10
142.71999999999946
20
-3.2000000000000028
30
0
11
119.53999999999948
21
-3.2000000000000028
31
0
0
LWPOLYLINE
5
126
100
AcDbEntity
8
0
100
AcDbPolyline
90
4
70
1
43
0.0
10
165.89999999999952
20
-17.699999999999999
10
165.89999999999952
20
-14.5
10
142.71999999999952
20
-14.5
10
142.71999999999952
20
-17.699999999999999
0
LWPOLYLINE
5
127
100
AcDbEntity
8
0
100
AcDbPolyline
90
4
70
1
43
0.0
10
73.179999999999481
20
-14.5
10
49.999999999999474
20
-14.5
10
49.999999999999474
20
-17.699999999999999
10
73.179999999999481
20
-17.699999999999999
0
LWPOLYLINE
5
128
100
AcDbEntity
8
0
100
AcDbPolyline
90
4
70
1
43
0.0
10
119.53999999999949
20
-17.699999999999999
10
119.53999999999949
20
-14.5
10
96.359999999999474
20
-14.5
10
96.359999999999474
20
-17.699999999999999
0
LINE
5
129
100
AcDbEntity
8
0
100
AcDbLine
10
29.999999999999993
20
0
30
0
11
-12.097000000000008
21
4.5529895672144611e-15
31
7.1778640647274642e-29
0
LINE
5
130
100
AcDbEntity
8
0
100
AcDbLine
10
-12.097000000000008
20
4.5529895672144611e-15
30
7.1778640647274642e-29
11
-12.097000000000017
21
-36.400000000000006
31
7.1778640647274642e-29
0
LINE
5
131
100
AcDbEntity
8
0
100
AcDbLine
10
-12.097000000000017
20
-36.400000000000006
30
7.1778640647274642e-29
11
29.999999999999993
21
-36.400000000000006
31
0
0
LINE
5
132
100
AcDbEntity
8
0
100
AcDbLine
10
29.999999999999982
20
-33.200000000000003
30
-2.3062076425609865e-46
11
29.999999999999993
21
-36.400000000000006
31
0
0
LINE
5
133
100
AcDbEntity
8
0
100
AcDbLine
10
29.999999999999982
20
-3.2000000000000006
30
3.5005702669182399e-29
11
29.999999999999993
21
0
31
0
0
LINE
5
134
100
AcDbEntity
8
0
100
AcDbLine
10
29.999999999999982
20
-3.2000000000000006
30
3.5005702669182399e-29
11
29.999999999999972
21
-13.200000000000003
31
1.5021860071211343e-28
0
LINE
5
135
100
AcDbEntity
8
0
100
AcDbLine
10
29.999999999999982
20
-33.200000000000003
30
-2.3062076425609865e-46
11
29.999999999999982
21
-23.200000000000003
31
-9.4092105352035252e-46
0
LINE
5
136
100
AcDbEntity
8
0
100
AcDbLine
10
28.499999999999943
20
-4.9999999999999991
30
0
11
28.49999999999994
21
-31.400000000000006
31
0
0
LINE
5
137
100
AcDbEntity
8
0
100
AcDbLine
10
26.999999999999979
20
-3.2000000000000006
30
3.5005702669182399e-29
11
26.999999999999989
21
0
31
0
0
LINE
5
138
100
AcDbEntity
8
0
100
AcDbLine
10
26.999999999999979
20
-3.2000000000000006
30
3.5005702669182399e-29
11
26.999999999999972
21
-13.200000000000003
31
1.5021860071211343e-28
0
LINE
5
139
100
AcDbEntity
8
0
100
AcDbLine
10
26.999999999999979
20
-33.200000000000003
30
-2.3062076425609865e-46
11
26.999999999999979
21
-23.200000000000003
31
-9.4092105352035252e-46
0
LINE
5
140
100
AcDbEntity
8
0
100
AcDbLine
10
26.999999999999979
20
-33.200000000000003
30
-2.3062076425609865e-46
11
26.999999999999989
21
-36.400000000000006
31
0
0
LINE
5
141
100
AcDbEntity
8
0
100
AcDbLine
10
25.49999999999994
20
-4.9999999999999991
30
0
11
25.499999999999936
21
-31.400000000000006
31
0
0
LINE
5
142
100
AcDbEntity
8
0
100
AcDbLine
10
23.999999999999979
20
-3.2000000000000006
30
3.5005702669182399e-29
11
23.999999999999986
21
0
31
0
0
LINE
5
143
100
AcDbEntity
8
0
100
AcDbLine
10
23.999999999999979
20
-3.2000000000000006
30
3.5005702669182399e-29
11
23.999999999999968
21
-13.200000000000003
31
1.5021860071211343e-28
0
LINE
5
144
100
AcDbEntity
8
0
100
AcDbLine
10
23.999999999999979
20
-33.200000000000003
30
-2.3062076425609865e-46
11
23.999999999999979
21
-23.200000000000003
31
-9.4092105352035252e-46
0
LINE
5
145
100
AcDbEntity
8
0
100
AcDbLine
10
23.999999999999979
20
-33.200000000000003
30
-2.3062076425609865e-46
11
23.999999999999986
21
-36.400000000000006
31
0
0
LINE
5
146
100
AcDbEntity
8
0
100
AcDbLine
10
22.499999999999936
20
-4.9999999999999991
30
0
11
22.499999999999932
21
-31.400000000000006
31
0
0
LINE
5
147
100
AcDbEntity
8
0
100
AcDbLine
10
20.999999999999975
20
-3.2000000000000006
30
3.5005702669182399e-29
11
20.999999999999982
21
0
31
0
0
LINE
5
148
100
AcDbEntity
8
0
100
AcDbLine
10
20.999999999999975
20
-3.2000000000000006
30
3.5005702669182399e-29
11
20.999999999999964
21
-13.200000000000003
31
1.5021860071211343e-28
0
LINE
5
149
100
AcDbEntity
8
0
100
AcDbLine
10
20.999999999999975
20
-33.200000000000003
30
-2.3062076425609865e-46
11
20.999999999999975
21
-23.200000000000003
31
-9.4092105352035252e-46
0
LINE
5
150
100
AcDbEntity
8
0
100
AcDbLine
10
20.999999999999975
20
-33.200000000000003
30
-2.3062076425609865e-46
11
20.999999999999982
21
-36.400000000000006
31
0
0
LINE
5
151
100
AcDbEntity
8
0
100
AcDbLine
10
19.499999999999936
20
-4.9999999999999991
30
0
11
19.499999999999929
21
-31.400000000000006
31
0
0
LINE
5
152
100
AcDbEntity
8
0
100
AcDbLine
10
17.999999999999972
20
-3.2000000000000006
30
3.5005702669182399e-29
11
17.999999999999979
21
0
31
0
0
LINE
5
153
100
AcDbEntity
8
0
100
AcDbLine
10
17.999999999999972
20
-3.2000000000000006
30
3.5005702669182399e-29
11
17.999999999999964
21
-13.200000000000003
31
1.5021860071211343e-28
0
LINE
5
154
100
AcDbEntity
8
0
100
AcDbLine
10
17.999999999999972
20
-33.200000000000003
30
-2.3062076425609865e-46
11
17.999999999999972
21
-23.200000000000003
31
-9.4092105352035252e-46
0
LINE
5
155
100
AcDbEntity
8
0
100
AcDbLine
10
17.999999999999972
20
-33.200000000000003
30
-2.3062076425609865e-46
11
17.999999999999979
21
-36.400000000000006
31
0
0
LINE
5
156
100
AcDbEntity
8
0
100
AcDbLine
10
16.499999999999932
20
-4.9999999999999991
30
0
11
16.499999999999929
21
-31.400000000000006
31
0
0
LINE
5
157
100
AcDbEntity
8
0
100
AcDbLine
10
14.999999999999968
20
-3.2000000000000006
30
3.5005702669182399e-29
11
14.999999999999979
21
0
31
0
0
LINE
5
158
100
AcDbEntity
8
0
100
AcDbLine
10
14.999999999999968
20
-3.2000000000000006
30
3.5005702669182399e-29
11
14.999999999999961
21
-13.200000000000003
31
1.5021860071211343e-28
0
LINE
5
159
100
AcDbEntity
8
0
100
AcDbLine
10
14.999999999999968
20
-33.200000000000003
30
-2.3062076425609865e-46
11
14.999999999999968
21
-23.200000000000003
31
-9.4092105352035252e-46
0
LINE
5
160
100
AcDbEntity
8
0
100
AcDbLine
10
14.999999999999968
20
-33.200000000000003
30
-2.3062076425609865e-46
11
14.999999999999979
21
-36.400000000000006
31
0
0
LINE
5
161
100
AcDbEntity
8
0
100
AcDbLine
10
13.499999999999929
20
-4.9999999999999991
30
0
11
13.499999999999925
21
-31.400000000000006
31
0
0
LINE
5
162
100
AcDbEntity
8
0
100
AcDbLine
10
11.999999999999966
20
-3.2000000000000006
30
3.5005702669182399e-29
11
11.999999999999975
21
0
31
0
0
LINE
5
163
100
AcDbEntity
8
0
100
AcDbLine
10
11.999999999999966
20
-3.2000000000000006
30
3.5005702669182399e-29
11
11.999999999999957
21
-13.200000000000003
31
1.5021860071211343e-28
0
LINE
5
164
100
AcDbEntity
8
0
100
AcDbLine
10
11.999999999999966
20
-33.200000000000003
30
-2.3062076425609865e-46
11
11.999999999999966
21
-23.200000000000003
31
-9.4092105352035252e-46
0
LINE
5
165
100
AcDbEntity
8
0
100
AcDbLine
10
11.999999999999966
20
-33.200000000000003
30
-2.3062076425609865e-46
11
11.999999999999975
21
-36.400000000000006
31
0
0
LINE
5
166
100
AcDbEntity
8
0
100
AcDbLine
10
10.499999999999927
20
-4.9999999999999991
30
0
11
10.499999999999922
21
-31.400000000000006
31
0
0
LINE
5
167
100
AcDbEntity
8
0
100
AcDbLine
10
8.9999999999999645
20
-3.2000000000000006
30
3.5005702669182399e-29
11
8.9999999999999716
21
0
31
0
0
LINE
5
168
100
AcDbEntity
8
0
100
AcDbLine
10
8.9999999999999645
20
-3.2000000000000006
30
3.5005702669182399e-29
11
8.9999999999999538
21
-13.200000000000003
31
1.5021860071211343e-28
0
LINE
5
169
100
AcDbEntity
8
0
100
AcDbLine
10
8.9999999999999645
20
-33.200000000000003
30
-2.3062076425609865e-46
11
8.9999999999999645
21
-23.200000000000003
31
-9.4092105352035252e-46
0
LINE
5
170
100
AcDbEntity
8
0
100
AcDbLine
10
8.9999999999999645
20
-33.200000000000003
30
-2.3062076425609865e-46
11
8.9999999999999716
21
-36.400000000000006
31
0
0
LINE
5
171
100
AcDbEntity
8
0
100
AcDbLine
10
7.4999999999999245
20
-4.9999999999999991
30
0
11
7.4999999999999201
21
-31.400000000000006
31
0
0
LINE
5
172
100
AcDbEntity
8
0
100
AcDbLine
10
5.9999999999999609
20
-3.2000000000000006
30
3.5005702669182399e-29
11
5.9999999999999698
21
0
31
0
0
LINE
5
173
100
AcDbEntity
8
0
100
AcDbLine
10
5.9999999999999609
20
-3.2000000000000006
30
3.5005702669182399e-29
11
5.999999999999952
21
-13.200000000000003
31
1.5021860071211343e-28
0
LINE
5
174
100
AcDbEntity
8
0
100
AcDbLine
10
5.9999999999999609
20
-33.200000000000003
30
-2.3062076425609865e-46
11
5.9999999999999609
21
-23.200000000000003
31
-9.4092105352035252e-46
0
LINE
5
175
100
AcDbEntity
8
0
100
AcDbLine
10
5.9999999999999609
20
-33.200000000000003
30
-2.3062076425609865e-46
11
5.9999999999999698
21
-36.400000000000006
31
0
0
LINE
5
176
100
AcDbEntity
8
0
100
AcDbLine
10
4.4999999999999218
20
-4.9999999999999991
30
0
11
4.4999999999999174
21
-31.400000000000006
31
0
0
LINE
5
177
100
AcDbEntity
8
0
100
AcDbLine
10
2.9999999999999583
20
-3.2000000000000006
30
3.5005702669182399e-29
11
2.9999999999999671
21
0
31
0
0
LINE
5
178
100
AcDbEntity
8
0
100
AcDbLine
10
2.9999999999999583
20
-3.2000000000000006
30
3.5005702669182399e-29
11
2.9999999999999494
21
-13.200000000000003
31
1.5021860071211343e-28
0
LINE
5
179
100
AcDbEntity
8
0
100
AcDbLine
10
2.9999999999999583
20
-33.200000000000003
30
-2.3062076425609865e-46
11
2.9999999999999583
21
-23.200000000000003
31
-9.4092105352035252e-46
0
LINE
5
180
100
AcDbEntity
8
0
100
AcDbLine
10
2.9999999999999583
20
-33.200000000000003
30
-2.3062076425609865e-46
11
2.9999999999999671
21
-36.400000000000006
31
0
0
LINE
5
181
100
AcDbEntity
8
0
100
AcDbLine
10
1.4999999999999192
20
-4.9999999999999991
30
0
11
1.4999999999999147
21
-31.400000000000006
31
0
0
LINE
5
182
100
AcDbEntity
8
0
100
AcDbLine
10
-4.4408920985006262e-14
20
-3.2000000000000006
30
3.5005702669182399e-29
11
-3.5527136788005009e-14
21
0
31
0
0
LINE
5
183
100
AcDbEntity
8
0
100
AcDbLine
10
-4.4408920985006262e-14
20
-3.2000000000000006
30
3.5005702669182399e-29
11
-5.3290705182007514e-14
21
-13.200000000000003
31
1.5021860071211343e-28
0
LINE
5
184
100
AcDbEntity
8
0
100
AcDbLine
10
-4.4408920985006262e-14
20
-33.200000000000003
30
-2.3062076425609865e-46
11
-4.4408920985006262e-14
21
-23.200000000000003
31
-9.4092105352035252e-46
0
LINE
5
185
100
AcDbEntity
8
0
100
AcDbLine
10
-4.4408920985006262e-14
20
-33.200000000000003
30
-2.3062076425609865e-46
11
-3.5527136788005009e-14
21
-36.400000000000006
31
0
0
LINE
5
186
100
AcDbEntity
8
0
100
AcDbLine
10
-1.5000000000000835
20
-4.9999999999999991
30
0
11
-1.5000000000000879
21
-31.400000000000006
31
0
0
LINE
5
187
100
AcDbEntity
8
0
100
AcDbLine
10
-3.0000000000000471
20
-3.2000000000000006
30
3.5005702669182399e-29
11
-3.0000000000000382
21
0
31
0
0
LINE
5
188
100
AcDbEntity
8
0
100
AcDbLine
10
-3.0000000000000471
20
-3.2000000000000006
30
3.5005702669182399e-29
11
-3.000000000000056
21
-13.200000000000003
31
1.5021860071211343e-28
0
LINE
5
189
100
AcDbEntity
8
0
100
AcDbLine
10
-3.0000000000000471
20
-33.200000000000003
30
-2.3062076425609865e-46
11
-3.0000000000000471
21
-23.200000000000003
31
-9.4092105352035252e-46
0
LINE
5
190
100
AcDbEntity
8
0
100
AcDbLine
10
-3.0000000000000471
20
-33.200000000000003
30
-2.3062076425609865e-46
11
-3.0000000000000382
21
-36.400000000000006
31
0
0
LINE
5
191
100
AcDbEntity
8
0
100
AcDbLine
10
-4.5000000000000862
20
-4.9999999999999991
30
0
11
-4.5000000000000906
21
-31.400000000000006
31
0
0
LINE
5
192
100
AcDbEntity
8
0
100
AcDbLine
10
-6.0000000000000497
20
-3.2000000000000006
30
3.5005702669182399e-29
11
-6.0000000000000409
21
0
31
0
0
LINE
5
193
100
AcDbEntity
8
0
100
AcDbLine
10
-6.0000000000000497
20
-3.2000000000000006
30
3.5005702669182399e-29
11
-6.0000000000000586
21
-13.200000000000003
31
1.5021860071211343e-28
0
LINE
5
194
100
AcDbEntity
8
0
100
AcDbLine
10
-6.0000000000000497
20
-33.200000000000003
30
-2.3062076425609865e-46
11
-6.0000000000000497
21
-23.200000000000003
31
-9.4092105352035252e-46
0
LINE
5
195
100
AcDbEntity
8
0
100
AcDbLine
10
-6.0000000000000497
20
-33.200000000000003
30
-2.3062076425609865e-46
11
-6.0000000000000409
21
-36.400000000000006
31
0
0
LINE
5
196
100
AcDbEntity
8
0
100
AcDbLine
10
-7.5000000000000888
20
-4.9999999999999991
30
0
11
-7.5000000000000933
21
-31.400000000000006
31
0
0
LINE
5
197
100
AcDbEntity
8
0
100
AcDbLine
10
-9.0000000000000533
20
-3.2000000000000006
30
3.5005702669182399e-29
11
-9.0000000000000426
21
0
31
0
0
LINE
5
198
100
AcDbEntity
8
0
100
AcDbLine
10
-9.0000000000000533
20
-3.2000000000000006
30
3.5005702669182399e-29
11
-9.0000000000000604
21
-13.200000000000003
31
1.5021860071211343e-28
0
LINE
5
199
100
AcDbEntity
8
0
100
AcDbLine
10
-9.0000000000000533
20
-33.200000000000003
30
-2.3062076425609865e-46
11
-9.0000000000000533
21
-23.200000000000003
31
-9.4092105352035252e-46
0
LINE
5
200
100
AcDbEntity
8
0
100
AcDbLine
10
-9.0000000000000533
20
-33.200000000000003
30
-2.3062076425609865e-46
11
-9.0000000000000426
21
-36.400000000000006
31
0
0
LINE
5
201
100
AcDbEntity
8
0
100
AcDbLine
10
-10.500000000000092
20
-4.9999999999999991
30
0
11
-10.500000000000096
21
-31.400000000000006
31
0
0
LINE
5
202
100
AcDbEntity
8
0
100
AcDbLine
10
107.94999999999946
20
0
30
-1.9721522630525295e-30
11
107.94999999999946
21
-36.400000000000006
31
1.9721522630525295e-30
0
LINE
5
203
100
AcDbEntity
8
0
100
AcDbLine
10
185.89999999999893
20
0
30
0
11
227.99699999999893
21
4.5529895672144611e-15
31
7.1778640647274642e-29
0
LINE
5
204
100
AcDbEntity
8
0
100
AcDbLine
10
185.89999999999895
20
-3.2000000000000006
30
3.5005702669182399e-29
11
185.89999999999895
21
-13.200000000000003
31
1.5021860071211343e-28
0
LINE
5
205
100
AcDbEntity
8
0
100
AcDbLine
10
227.99699999999893
20
4.5529895672144611e-15
30
7.1778640647274642e-29
11
227.99699999999893
21
-36.400000000000006
31
7.1778640647274642e-29
0
LINE
5
206
100
AcDbEntity
8
0
100
AcDbLine
10
193.39999999999895
20
-4.9999999999999991
30
0
11
193.39999999999901
21
-31.400000000000006
31
0
0
LINE
5
207
100
AcDbEntity
8
0
100
AcDbLine
10
214.39999999999901
20
-4.9999999999999991
30
0
11
214.39999999999901
21
-31.400000000000006
31
0
0
LINE
5
208
100
AcDbEntity
8
0
100
AcDbLine
10
205.39999999999901
20
-4.9999999999999991
30
0
11
205.39999999999901
21
-31.400000000000006
31
0
0
LINE
5
209
100
AcDbEntity
8
0
100
AcDbLine
10
227.99699999999893
20
-36.400000000000006
30
7.1778640647274642e-29
11
185.89999999999893
21
-36.400000000000006
31
0
0
LINE
5
210
100
AcDbEntity
8
0
100
AcDbLine
10
185.89999999999895
20
-3.2000000000000006
30
3.5005702669182399e-29
11
185.89999999999893
21
0
31
0
0
LINE
5
211
100
AcDbEntity
8
0
100
AcDbLine
10
220.39999999999901
20
-4.9999999999999991
30
0
11
220.39999999999901
21
-31.400000000000006
31
0
0
LINE
5
212
100
AcDbEntity
8
0
100
AcDbLine
10
191.89999999999898
20
-3.2000000000000006
30
3.5005702669182399e-29
11
191.89999999999898
21
-13.200000000000003
31
1.5021860071211343e-28
0
LINE
5
213
100
AcDbEntity
8
0
100
AcDbLine
10
223.39999999999904
20
-4.9999999999999991
30
0
11
223.39999999999904
21
-31.400000000000006
31
0
0
LINE
5
214
100
AcDbEntity
8
0
100
AcDbLine
10
185.89999999999895
20
-33.200000000000003
30
-2.1895288505075267e-46
11
185.89999999999893
21
-36.400000000000006
31
0
0
LINE
5
215
100
AcDbEntity
8
0
100
AcDbLine
10
208.39999999999901
20
-4.9999999999999991
30
0
11
208.39999999999904
21
-31.400000000000006
31
0
0
LINE
5
216
100
AcDbEntity
8
0
100
AcDbLine
10
212.89999999999901
20
-33.200000000000003
30
-2.1895288505075267e-46
11
212.89999999999901
21
-23.200000000000003
31
-8.7581154020301067e-46
0
LINE
5
217
100
AcDbEntity
8
0
100
AcDbLine
10
203.89999999999895
20
-3.2000000000000006
30
3.5005702669182399e-29
11
203.89999999999898
21
-13.200000000000003
31
1.5021860071211343e-28
0
LINE
5
218
100
AcDbEntity
8
0
100
AcDbLine
10
200.89999999999895
20
-3.2000000000000006
30
3.5005702669182399e-29
11
200.89999999999895
21
-13.200000000000003
31
1.5021860071211343e-28
0
LINE
5
219
100
AcDbEntity
8
0
100
AcDbLine
10
203.89999999999895
20
-3.2000000000000006
30
3.5005702669182399e-29
11
203.89999999999895
21
0
31
0
0
LINE
5
220
100
AcDbEntity
8
0
100
AcDbLine
10
224.89999999999898
20
-3.2000000000000006
30
3.5005702669182399e-29
11
224.89999999999895
21
0
31
0
0
LINE
5
221
100
AcDbEntity
8
0
100
AcDbLine
10
218.89999999999898
20
-3.2000000000000006
30
3.5005702669182399e-29
11
218.89999999999901
21
-13.200000000000003
31
1.5021860071211343e-28
0
LINE
5
222
100
AcDbEntity
8
0
100
AcDbLine
10
194.89999999999895
20
-33.200000000000003
30
-2.1895288505075267e-46
11
194.89999999999895
21
-23.200000000000003
31
-8.7581154020301067e-46
0
LINE
5
223
100
AcDbEntity
8
0
100
AcDbLine
10
194.89999999999895
20
-3.2000000000000006
30
3.5005702669182399e-29
11
194.89999999999895
21
0
31
0
0
LINE
5
224
100
AcDbEntity
8
0
100
AcDbLine
10
218.89999999999898
20
-33.200000000000003
30
-2.1895288505075267e-46
11
218.89999999999898
21
-36.400000000000006
31
0
0
LINE
5
225
100
AcDbEntity
8
0
100
AcDbLine
10
203.89999999999895
20
-33.200000000000003
30
-2.1895288505075267e-46
11
203.89999999999895
21
-23.200000000000003
31
-8.7581154020301067e-46
0
LINE
5
226
100
AcDbEntity
8
0
100
AcDbLine
10
215.89999999999895
20
-3.2000000000000006
30
3.5005702669182399e-29
11
215.89999999999895
21
-13.200000000000003
31
1.5021860071211343e-28
0
LINE
5
227
100
AcDbEntity
8
0
100
AcDbLine
10
212.89999999999901
20
-3.2000000000000006
30
3.5005702669182399e-29
11
212.89999999999895
21
0
31
0
0
LINE
5
228
100
AcDbEntity
8
0
100
AcDbLine
10
224.89999999999898
20
-33.200000000000003
30
-2.1895288505075267e-46
11
224.89999999999898
21
-23.200000000000003
31
-8.7581154020301067e-46
0
LINE
5
229
100
AcDbEntity
8
0
100
AcDbLine
10
203.89999999999895
20
-33.200000000000003
30
-2.1895288505075267e-46
11
203.89999999999895
21
-36.400000000000006
31
0
0
LINE
5
230
100
AcDbEntity
8
0
100
AcDbLine
10
218.89999999999898
20
-33.200000000000003
30
-2.1895288505075267e-46
11
218.89999999999898
21
-23.200000000000003
31
-8.7581154020301067e-46
0
LINE
5
231
100
AcDbEntity
8
0
100
AcDbLine
10
215.89999999999895
20
-33.200000000000003
30
-2.1895288505075267e-46
11
215.89999999999895
21
-36.400000000000006
31
0
0
LINE
5
232
100
AcDbEntity
8
0
100
AcDbLine
10
206.89999999999898
20
-33.200000000000003
30
-2.1895288505075267e-46
11
206.89999999999898
21
-23.200000000000003
31
-8.7581154020301067e-46
0
LINE
5
233
100
AcDbEntity
8
0
100
AcDbLine
10
209.89999999999895
20
-33.200000000000003
30
-2.1895288505075267e-46
11
209.89999999999895
21
-36.400000000000006
31
0
0
LINE
5
234
100
AcDbEntity
8
0
100
AcDbLine
10
200.89999999999895
20
-33.200000000000003
30
-2.1895288505075267e-46
11
200.89999999999895
21
-36.400000000000006
31
0
0
LINE
5
235
100
AcDbEntity
8
0
100
AcDbLine
10
212.89999999999901
20
-33.200000000000003
30
-2.1895288505075267e-46
11
212.89999999999895
21
-36.400000000000006
31
0
0
LINE
5
236
100
AcDbEntity
8
0
100
AcDbLine
10
206.89999999999898
20
-3.2000000000000006
30
3.5005702669182399e-29
11
206.89999999999898
21
0
31
0
0
LINE
5
237
100
AcDbEntity
8
0
100
AcDbLine
10
206.89999999999898
20
-33.200000000000003
30
-2.1895288505075267e-46
11
206.89999999999898
21
-36.400000000000006
31
0
0
LINE
5
238
100
AcDbEntity
8
0
100
AcDbLine
10
200.89999999999895
20
-3.2000000000000006
30
3.5005702669182399e-29
11
200.89999999999895
21
0
31
0
0
LINE
5
239
100
AcDbEntity
8
0
100
AcDbLine
10
221.89999999999898
20
-3.2000000000000006
30
3.5005702669182399e-29
11
221.89999999999898
21
-13.200000000000003
31
1.5021860071211343e-28
0
LINE
5
240
100
AcDbEntity
8
0
100
AcDbLine
10
206.89999999999898
20
-3.2000000000000006
30
3.5005702669182399e-29
11
206.89999999999898
21
-13.200000000000003
31
1.5021860071211343e-28
0
LINE
5
241
100
AcDbEntity
8
0
100
AcDbLine
10
197.89999999999895
20
-33.200000000000003
30
-2.1895288505075267e-46
11
197.89999999999893
21
-36.400000000000006
31
0
0
LINE
5
242
100
AcDbEntity
8
0
100
AcDbLine
10
200.89999999999895
20
-33.200000000000003
30
-2.1895288505075267e-46
11
200.89999999999895
21
-23.200000000000003
31
-8.7581154020301067e-46
0
LINE
5
243
100
AcDbEntity
8
0
100
AcDbLine
10
224.89999999999898
20
-3.2000000000000006
30
3.5005702669182399e-29
11
224.89999999999898
21
-13.200000000000003
31
1.5021860071211343e-28
0
LINE
5
244
100
AcDbEntity
8
0
100
AcDbLine
10
215.89999999999895
20
-33.200000000000003
30
-2.1895288505075267e-46
11
215.89999999999895
21
-23.200000000000003
31
-8.7581154020301067e-46
0
LINE
5
245
100
AcDbEntity
8
0
100
AcDbLine
10
209.89999999999895
20
-3.2000000000000006
30
3.5005702669182399e-29
11
209.89999999999895
21
-13.200000000000003
31
1.5021860071211343e-28
0
LINE
5
246
100
AcDbEntity
8
0
100
AcDbLine
10
197.89999999999895
20
-3.2000000000000006
30
3.5005702669182399e-29
11
197.89999999999893
21
0
31
0
0
LINE
5
247
100
AcDbEntity
8
0
100
AcDbLine
10
194.89999999999895
20
-3.2000000000000006
30
3.5005702669182399e-29
11
194.89999999999895
21
-13.200000000000003
31
1.5021860071211343e-28
0
LINE
5
248
100
AcDbEntity
8
0
100
AcDbLine
10
215.89999999999895
20
-3.2000000000000006
30
3.5005702669182399e-29
11
215.89999999999895
21
0
31
0
0
LINE
5
249
100
AcDbEntity
8
0
100
AcDbLine
10
221.89999999999898
20
-33.200000000000003
30
-2.1895288505075267e-46
11
221.89999999999898
21
-36.400000000000006
31
0
0
LINE
5
250
100
AcDbEntity
8
0
100
AcDbLine
10
221.89999999999898
20
-33.200000000000003
30
-2.1895288505075267e-46
11
221.89999999999898
21
-23.200000000000003
31
-8.7581154020301067e-46
0
LINE
5
251
100
AcDbEntity
8
0
100
AcDbLine
10
221.89999999999898
20
-3.2000000000000006
30
3.5005702669182399e-29
11
221.89999999999898
21
0
31
0
0
LINE
5
252
100
AcDbEntity
8
0
100
AcDbLine
10
218.89999999999898
20
-3.2000000000000006
30
3.5005702669182399e-29
11
218.89999999999898
21
0
31
0
0
LINE
5
253
100
AcDbEntity
8
0
100
AcDbLine
10
209.89999999999895
20
-3.2000000000000006
30
3.5005702669182399e-29
11
209.89999999999895
21
0
31
0
0
LINE
5
254
100
AcDbEntity
8
0
100
AcDbLine
10
224.89999999999898
20
-33.200000000000003
30
-2.1895288505075267e-46
11
224.89999999999895
21
-36.400000000000006
31
0
0
LINE
5
255
100
AcDbEntity
8
0
100
AcDbLine
10
191.89999999999898
20
-33.200000000000003
30
-2.1895288505075267e-46
11
191.89999999999895
21
-36.400000000000006
31
0
0
LINE
5
256
100
AcDbEntity
8
0
100
AcDbLine
10
196.39999999999901
20
-4.9999999999999991
30
0
11
196.39999999999901
21
-31.400000000000006
31
0
0
LINE
5
257
100
AcDbEntity
8
0
100
AcDbLine
10
188.89999999999895
20
-33.200000000000003
30
-2.1895288505075267e-46
11
188.89999999999895
21
-23.200000000000003
31
-8.7581154020301067e-46
0
LINE
5
258
100
AcDbEntity
8
0
100
AcDbLine
10
187.39999999999898
20
-4.9999999999999991
30
0
11
187.39999999999898
21
-31.400000000000006
31
0
0
LINE
5
259
100
AcDbEntity
8
0
100
AcDbLine
10
202.39999999999901
20
-4.9999999999999991
30
0
11
202.39999999999901
21
-31.400000000000006
31
0
0
LINE
5
260
100
AcDbEntity
8
0
100
AcDbLine
10
185.89999999999895
20
-33.200000000000003
30
-2.1895288505075267e-46
11
185.89999999999895
21
-23.200000000000003
31
-8.7581154020301067e-46
0
LINE
5
261
100
AcDbEntity
8
0
100
AcDbLine
10
188.89999999999895
20
-3.2000000000000006
30
3.5005702669182399e-29
11
188.89999999999895
21
0
31
0
0
LINE
5
262
100
AcDbEntity
8
0
100
AcDbLine
10
199.39999999999898
20
-4.9999999999999991
30
0
11
199.39999999999898
21
-31.400000000000006
31
0
0
LINE
5
263
100
AcDbEntity
8
0
100
AcDbLine
10
194.89999999999895
20
-33.200000000000003
30
-2.1895288505075267e-46
11
194.89999999999895
21
-36.400000000000006
31
0
0
LINE
5
264
100
AcDbEntity
8
0
100
AcDbLine
10
188.89999999999895
20
-33.200000000000003
30
-2.1895288505075267e-46
11
188.89999999999895
21
-36.400000000000006
31
0
0
LINE
5
265
100
AcDbEntity
8
0
100
AcDbLine
10
212.89999999999901
20
-3.2000000000000006
30
3.5005702669182399e-29
11
212.89999999999901
21
-13.200000000000003
31
1.5021860071211343e-28
0
LINE
5
266
100
AcDbEntity
8
0
100
AcDbLine
10
197.89999999999895
20
-33.200000000000003
30
-2.1895288505075267e-46
11
197.89999999999895
21
-23.200000000000003
31
-8.7581154020301067e-46
0
LINE
5
267
100
AcDbEntity
8
0
100
AcDbLine
10
209.89999999999895
20
-33.200000000000003
30
-2.1895288505075267e-46
11
209.89999999999895
21
-23.200000000000003
31
-8.7581154020301067e-46
0
LINE
5
268
100
AcDbEntity
8
0
100
AcDbLine
10
197.89999999999895
20
-3.2000000000000006
30
3.5005702669182399e-29
11
197.89999999999901
21
-13.200000000000003
31
1.5021860071211343e-28
0
LINE
5
269
100
AcDbEntity
8
0
100
AcDbLine
10
191.89999999999898
20
-3.2000000000000006
30
3.5005702669182399e-29
11
191.89999999999895
21
0
31
0
0
LINE
5
270
100
AcDbEntity
8
0
100
AcDbLine
10
211.39999999999901
20
-4.9999999999999991
30
0
11
211.39999999999901
21
-31.400000000000006
31
0
0
LINE
5
271
100
AcDbEntity
8
0
100
AcDbLine
10
226.39999999999901
20
-4.9999999999999991
30
0
11
226.39999999999901
21
-31.400000000000006
31
0
0
LINE
5
272
100
AcDbEntity
8
0
100
AcDbLine
10
188.89999999999895
20
-3.2000000000000006
30
3.5005702669182399e-29
11
188.89999999999895
21
-13.200000000000003
31
1.5021860071211343e-28
0
LINE
5
273
100
AcDbEntity
8
0
100
AcDbLine
10
217.39999999999901
20
-4.9999999999999991
30
0
11
217.39999999999901
21
-31.400000000000006
31
0
0
LINE
5
274
100
AcDbEntity
8
0
100
AcDbLine
10
191.89999999999898
20
-33.200000000000003
30
-2.1895288505075267e-46
11
191.89999999999898
21
-23.200000000000003
31
-8.7581154020301067e-46
0
LINE
5
275
100
AcDbEntity
8
0
100
AcDbLine
10
190.39999999999901
20
-4.9999999999999991
30
0
11
190.39999999999901
21
-31.400000000000006
31
0
0
ENDSEC
0
SECTION
2
OBJECTS
0
DICTIONARY
5
C
100
AcDbDictionary
3
ACAD_GROUP
350
D
3
ACAD_MLINESTYLE
350
17
0
DICTIONARY
5
D
100
AcDbDictionary
0
DICTIONARY
5
1A
330
C
100
AcDbDictionary
0
DICTIONARY
5
17
100
AcDbDictionary
0
ENDSEC
0
EOF
