0
SECTION
2
HEADER
9
$INSUNITS
70
4
9
$ACADVER
1
AC1014
9
$HANDSEED
5
FFFF
0
ENDSEC
0
SECTION
2
TABLES
0
TABLE
2
VPORT
5
8
100
AcDbSymbolTable
0
ENDTAB
0
TABLE
2
LTYPE
5
5
100
AcDbSymbolTable
0
LTYPE
5
14
100
AcDbSymbolTableRecord
100
AcDbLinetypeTableRecord
2
BYBLOCK
70
0
0
LTYPE
5
15
100
AcDbSymbolTableRecord
100
AcDbLinetypeTableRecord
2
BYLAYER
70
0
0
ENDTAB
0
TABLE
2
LAYER
5
2
100
AcDbSymbolTable
70
2
0
LAYER
5
50
100
AcDbSymbolTableRecord
100
AcDbLayerTableRecord
2
0
70
0
6
CONTINUOUS
0
ENDTAB
0
TABLE
2
STYLE
5
3
100
AcDbSymbolTable
70
1
0
STYLE
5
11
100
AcDbSymbolTableRecord
100
AcDbTextStyleTableRecord
2
STANDARD
70
0
0
ENDTAB
0
TABLE
2
VIEW
5
6
100
AcDbSymbolTable
70
0
0
ENDTAB
0
TABLE
2
UCS
5
7
100
AcDbSymbolTable
70
0
0
ENDTAB
0
TABLE
2
APPID
5
9
100
AcDbSymbolTable
70
2
0
APPID
5
12
100
AcDbSymbolTableRecord
100
AcDbRegAppTableRecord
2
ACAD
70
0
0
ENDTAB
0
TABLE
2
DIMSTYLE
5
A
100
AcDbSymbolTable
70
1
0
ENDTAB
0
TABLE
2
BLOCK_RECORD
5
1
100
AcDbSymbolTable
70
1
0
BLOCK_RECORD
5
1F
100
AcDbSymbolTableRecord
100
AcDbBlockTableRecord
2
*MODEL_SPACE
0
BLOCK_RECORD
5
1B
100
AcDbSymbolTableRecord
100
AcDbBlockTableRecord
2
*PAPER_SPACE
0
ENDTAB
0
ENDSEC
0
SECTION
2
BLOCKS
0
BLOCK
5
20
100
AcDbEntity
100
AcDbBlockBegin
2
*MODEL_SPACE
0
ENDBLK
5
21
100
AcDbEntity
100
AcDbBlockEnd
0
BLOCK
5
1C
100
AcDbEntity
100
AcDbBlockBegin
2
*PAPER_SPACE
0
ENDBLK
5
1D
100
AcDbEntity
100
AcDbBlockEnd
0
ENDSEC
0
SECTION
2
ENTITIES
0
LWPOLYLINE
5
100
100
AcDbEntity
8
0
100
AcDbPolyline
90
8
70
1
43
0.0
10
125.69999999999999
20
-187.90000000000003
10
125.70000000000002
20
-27.999999999999954
42
-0.8672954016950678
10
111.6999999999999
20
-13.999999999999986
10
-111.69999999999996
20
-13.999999999999986
42
-0.86729540169506836
10
-125.69999999999999
20
-27.999999999999936
10
-125.69999999999999
20
-187.90000000000003
42
-0.86729540169506836
10
-111.69999999999999
20
-201.89999999999998
10
111.69999999999996
20
-201.89999999999998
42
-0.86729540169506869
0
CIRCLE
5
101
100
AcDbEntity
8
0
100
AcDbCircle
10
-119.69999999999997
20
-195.90000000000001
30
0
40
2.1000000000000085
210
0
220
-0
230
1
0
CIRCLE
5
102
100
AcDbEntity
8
0
100
AcDbCircle
10
119.69999999999997
20
-19.999999999999964
30
0
40
2.1000000000000085
210
0
220
-0
230
1
0
CIRCLE
5
103
100
AcDbEntity
8
0
100
AcDbCircle
10
119.69999999999997
20
-195.90000000000001
30
0
40
2.1000000000000085
210
0
220
-0
230
1
0
CIRCLE
5
104
100
AcDbEntity
8
0
100
AcDbCircle
10
-119.69999999999997
20
-19.999999999999964
30
0
40
2.1000000000000085
210
0
220
-0
230
1
0
LWPOLYLINE
5
105
100
AcDbEntity
8
0
100
AcDbPolyline
90
64
70
1
43
0.0
10
-136.49999999999966
20
-142.71999999999952
10
-139.69999999999968
20
-142.71999999999949
10
-139.69999999999959
20
-119.53999999999949
10
-136.49999999999957
20
-119.53999999999951
10
-136.49999999999952
20
-96.359999999999502
10
-139.69999999999951
20
-96.359999999999474
10
-139.69999999999936
20
-73.179999999999467
10
-136.49999999999937
20
-73.179999999999495
10
-136.49999999999932
20
-49.999999999999488
10
-139.69999999999933
20
-49.999999999999467
10
-139.70000000000002
20
-30
10
-136.50000000000003
20
-30
42
-0.4142135623730952
10
-109.7
20
-3.2000000000000028
10
-109.7
20
4.4408920985006262e-15
10
-89.700000000000003
20
0
10
-89.700000000000017
20
-3.2000000000000028
10
-53.820000000000206
20
-3.2000000000000028
10
-53.820000000000206
20
0
10
-17.93999999999949
20
0
10
-17.939999999999493
20
-3.2000000000000028
10
17.940000000000332
20
-3.2000000000000028
10
17.940000000000332
20
0
10
53.820000000000149
20
0
10
53.820000000000128
20
-3.2000000000000028
10
89.700000000000045
20
-3.2000000000000028
10
89.700000000000045
20
0
10
109.70000000000005
20
-1.7763568394002505e-14
10
109.70000000000005
20
-3.2000000000000206
42
-0.41421356237309442
10
136.49999999999997
20
-30
10
139.69999999999996
20
-30
10
139.69999999999996
20
-50
10
136.49999999999997
20
-50
10
136.49999999999997
20
-73.180000000000007
10
139.69999999999996
20
-73.180000000000007
10
139.69999999999996
20
-96.360000000000014
10
136.49999999999997
20
-96.360000000000014
10
136.49999999999997
20
-119.54000000000002
10
139.69999999999996
20
-119.54000000000002
10
139.69999999999996
20
-142.72000000000003
10
136.49999999999997
20
-142.72000000000003
10
136.49999999999997
20
-165.90000000000003
10
139.69999999999996
20
-165.90000000000003
10
139.70000000000002
20
-185.90000000000003
10
136.49999999999997
20
-185.90000000000003
42
-0.41421356237309465
10
109.7
20
-212.69999999999996
10
109.7
20
-215.89999999999998
10
89.700000000000045
20
-215.90000000000003
10
89.700000000000045
20
-212.70000000000005
10
53.820000000000086
20
-212.70000000000005
10
53.820000000000043
20
-215.90000000000003
10
17.940000000000296
20
-215.90000000000003
10
17.9400000000003
20
-212.70000000000005
10
-17.939999999999522
20
-212.70000000000005
10
-17.939999999999507
20
-215.90000000000003
10
-53.819999999999553
20
-215.90000000000003
10
-53.820000000000199
20
-212.70000000000005
10
-89.700000000000017
20
-212.70000000000005
10
-89.700000000000003
20
-215.90000000000003
10
-109.7
20
-215.89999999999998
10
-109.69999999999997
20
-212.69999999999996
42
-0.41421356237309542
10
-136.49999999999997
20
-185.90000000000001
10
-139.70000000000002
20
-185.90000000000001
10
-139.69999999999976
20
-165.89999999999949
10
-136.49999999999974
20
-165.89999999999952
0
ENDSEC
0
SECTION
2
OBJECTS
0
DICTIONARY
5
C
100
AcDbDictionary
3
ACAD_GROUP
350
D
3
ACAD_MLINESTYLE
350
17
0
DICTIONARY
5
D
100
AcDbDictionary
0
DICTIONARY
5
1A
330
C
100
AcDbDictionary
0
DICTIONARY
5
17
100
AcDbDictionary
0
ENDSEC
0
EOF
